<svg xmlns="http://www.w3.org/2000/svg" viewBox="0 0 622.5 629.3"><defs><style>.st130,.st136,.st59{fill:none;stroke-width:.3px}.st165{fill:#022c33}.st175{fill:#f8fafa}.st191{fill:#f7fafa}.st59{stroke:#f7fafa}.st130{stroke:#022c33}.st136{stroke:#f8fafa}</style></defs><ellipse id="Layer_2" cx="312.2" cy="318.2" rx="310.2" ry="311" style="fill:#00273b"/><g id="Layer_1"><path d="M123.4 64.2c-3 2.5-6 5.4-9 8-5 4.3-9.9 8.7-15 13l-12 12c-7.2 8.5-14.5 15.9-21.2 24.8-6.7 8.9-12.1 17.4-18 27-5.9 9.6-11.7 18.7-16.8 29.2-5.1 10.5-8.9 20.7-13 32s-8 23.1-10.6 35.4c-2.6 12.3-5.3 25.5-6.3 38.7s-1.6 31.6-1 45 2.1 28 5 40 3.8 26.6 9.1 36.9c5.3 10.3 4.3 24.9 12.9 32.1.3.2 1 0 1 0 3.4-5.4 15.2-4.6 20-9 .4-1.5-1.4-2.4-1-4-2.1-4.6-4.2-10.1-6-15-.5-1.2-.6-2.7-1-4-8.7-26.7-15-54-15-83-.7-7.5-.7-16.5 0-24 0-135 120.7-256.6 251-272 6.6-2.9 13.1-4.4 22-3-2-2.7-7.1.7-9-2 10-1.1 20 1.7 31 1s21.3 1.3 31 4c68.4 8.5 134.3 45.5 180 99 6.7 6.7 16.5 12.9 17 23 5.9.9 7.2 9.7 13 11-1 5.3 4.2 12.6 7.8 19.2 3.5 6.7 7.8 13.4 10 21s6.1 14.8 8.5 22.5c2.4 7.7 4.8 16.2 6.6 24.4 1.8 8.2 3.3 18 4.1 25.9 7.9.8 15.8 1.3 24 1-6.5-64.9-36.7-122.5-79-172l-13-13c-28.1-24-49-41.2-82.8-57.2C413.9 16 377.5 5.4 338.5 1.3s-86.9 4-123 15c-36 11-60.2 29.9-92 48Z" style="stroke:#f7f9f9;fill:none;stroke-width:.3px"/><path d="M276.4 27.2h3c2.7 0 5.3-.5 8-1 19.6-3.5 44.2-1.5 64 1-9.7-2.7-20-4.7-31-4-11 .7-21-2.1-31-1 1.9 2.7 7-.7 9 2-8.9-1.4-15.4 0-22 3Z" style="stroke:#c8f3f2;fill:none;stroke-width:.3px"/><path d="M287.4 26.2h5c-7.2.7-15.4 3.1-20 9-.9 1.1-2.2 2.1-3 3-6.8 10.9-13.2 19.2-19.1 30.9-5.9 11.7-9.5 23.9-13 37-3.5 13.1-5.5 28.7-5.9 43.1s2 31.8 5 45 6.9 26.2 12.1 37.9c5.2 11.8 10.1 21.9 17.2 31.8 7 10 13.6 19.4 22 28 8.4 8.6 16.3 16.8 25.5 23.5 9.3 6.7 19.9 15.6 30.1 19.9 10.2 4.3 24.2 14.7 34.9 15.1 10.6.4 17.4-15 28-19.5 10.5-4.5 19.6-14.6 31-19 11.4-4.4 21.8-12.2 34.2-15.8 12.4-3.6 24.2-8.3 37.4-11.7 13.2-3.3 27.6-6.1 41.7-8.3s31.2-3 46-3c-3.6-8-1.1-20.8-4.9-29.1-3.9-8.2-3.2-18.9-7-26.9-3.9-8.1-5.9-16.4-9.9-24.1-4.1-7.6-6.8-15.5-11.4-22.6-4.6-7.2-8.5-15.4-14.7-20.3-2.5 9.2-12.9 16.9-23 14s4.7-18.5 12-17c3-.7 8.2 0 8-3-3.2-6.5-9.3-12.6-14-18-45.7-53.5-111.6-90.5-180-99-19.8-2.5-44.4-4.5-64-1m25.8 53.1c3.4 20 8.4 43.1 29 52 3.8 1.6 8.3 4 12 5 5.6.9 12.6 2 17 5-10.1 3.3-20.7 4.8-30 10-21.3 10.5-25 36.1-30 56-3.2-8.7-3.8-18.2-7-27-8.8-26.5-35.3-37.5-61-39 31.1-1.9 65.5-21.4 65-57 .5-4 .8-8.9 3-12 1.6 1.7 1 4.8 2 7m91 0c-1.2 9.4 9.7 11.9 14 16-7-.3-13.6 6.2-14 13-4.5-3.9-7.1-14.3-16-13 6.5-3.1 12.4-9.8 16-16m59 10c7 7.6 9.3 14.3 8.1 25.1-1.3 10.8-12.2 13.1-14.9 1.7-2.6-11.4 1.6-17.4 6.8-26.8m-35 28c8.8 3.6 1.7 20.7-7.7 15.7s-2.4-19.8 7.7-15.7m80 0c9.1 3.7 2 21.1-7.7 15.7-9.7-5.5-3.4-20.2 7.7-15.7m11 84c-1.8 8.6-4.8 15.8-10 23-2.8 4-7.1 8.2-11 11-1.5 1.1-3.4 2.1-5 3-34.1 19.6-85.4-.5-87-43-.6-4.3-.7-8.8 0-13 1.8-32.7 35.1-55.7 67.2-50.2s52.3 37.3 45.8 69.2m-141-56c10.9.5 14.9-.5 23.8 7.2s-.3 15-9.4 10.4-11-9.2-14.3-17.7m1.9 42.1c8.7 3 3 19.7-6.2 15.2s-3.7-18.7 6.2-15.2m174 0c9 3.2 2.3 20.4-7.2 15.2-9.5-5.2-3-18.8 7.2-15.2m-174 52c2.1-8.2 4.2-13.7 13.1-17.9 8.8-4.2 19 1 11 10s-13 7.8-24.1 7.9m167 0c-13.4 2.8-27.4-5.3-29-19 13.6-3.3 26.2 6.3 29 19m-215 4c-.5 15.8 13.2 29.5 29 29-5.6 3.5-15 3.9-20.8 10.2-5.8 6.3-7.4 14.1-9.2 21.8-.7-16.5-14.6-31-31-31 17.2-.4 28.8-14.6 32-30m116 9c9.6 3.6 2.2 23-8 17s-3.5-21.3 8-17m37 0c11 3.4 3.3 23.2-7.2 17.2-10.6-6-4.5-20.8 7.2-17.2m-107 51c6.6 2.2 2.1 15.3-4.7 11.7s-1.9-13.8 4.7-11.7Z" style="stroke:#26b3b6;fill:none;stroke-width:.3px"/><path d="M279.4 27.2c-1.2 2.9-5.1 5.7-7 8 4.6-5.9 12.8-8.3 20-9h-5c-2.7.5-5.3.9-8 1Z" style="stroke:#27919c;fill:none;stroke-width:.3px"/><path d="M269.4 38.2c.8-.9 2.1-1.9 3-3 1.9-2.3 5.8-5.1 7-8h-1c-2.7 3.9-6.5 6.9-9 11Z" style="stroke:#025461;fill:none;stroke-width:.3px"/><path d="M308.4 84.2c.4-1.4 3.7-3.4 2-6 1.3-.5 1.9 1 3 1-1-2.2-.4-5.3-2-7-2.2 3.1-2.5 8-3 12Z" style="stroke:#aef7f5;fill:none;stroke-width:.3px"/><path d="M308.4 84.2c.5 35.6-33.9 55.1-65 57 25.7 1.5 52.2 12.5 61 39 1.3 1.5 2.4-.3 4 0 .4 5.4-1.1 12.8 4 16 2.2-8.5 4-18.4 7.9-26.1 3.9-7.7 10.5-12.7 15.1-18.9h6c9.3-5.2 19.9-6.7 30-10-4.4-3-11.4-4.1-17-5-5.3-.9-7.8-2.4-12-5-20.6-8.9-25.6-32-29-52-1.1 0-1.7-1.5-3-1 1.7 2.6-1.6 4.6-2 6Z" style="stroke:#f5fbfb;fill:none;stroke-width:.3px"/><path d="M404.4 79.2c-3.6 6.2-9.5 12.9-16 16 8.9-1.3 11.5 9.1 16 13 .4-6.8 7-13.3 14-13-4.3-4.1-15.2-6.6-14-16m2 11c-2.3 3.4 1.9 5.3 1 9-2.8.4-4.5-.1-6 2-1.7-4.3-1.4-9.3 0-14 1 1.9 3.1 2 5 3Z" style="stroke:#d6f8f8;fill:none;stroke-width:.3px"/><path d="M406.4 90.2c-1.9-1-4-1.1-5-3-1.4 4.7-1.7 9.7 0 14 1.5-2.1 3.2-1.6 6-2 .9-3.7-3.3-5.6-1-9Z" style="stroke:#f9f9f9;fill:none;stroke-width:.3px"/><path d="M207.4 88.2c-5.7-2.6-8.6 6-3.7 8.7 5 2.6 8.2-6.6 3.7-8.7Z" style="stroke:#dbe8ef;fill:none;stroke-width:.3px"/><path d="M463.4 89.2c-5.2 9.4-9.4 15.4-6.8 26.8 2.6 11.4 13.6 9.1 14.9-1.7 1.3-10.8-1.1-17.4-8.1-25.1Z" style="stroke:#e6faf9;fill:none;stroke-width:.3px"/><path d="M176.4 97.2c-5-3.5-10.1 4.9-5.2 8.2 4.8 3.3 8.8-5.7 5.2-8.2Z" style="stroke:#d9e8ef;fill:none;stroke-width:.3px"/><path d="M428.4 117.2c-10.1-4.1-17 10.6-7.7 15.7 9.4 5 16.5-12.1 7.7-15.7m1 12c-6.5 2.1-15.3-2.1-9.2-8.2 6-6.1 12.4 2.7 9.2 8.2Z" style="stroke:#d2fbfb;fill:none;stroke-width:.3px"/><path d="M508.4 117.2c-11.1-4.5-17.4 10.2-7.7 15.7s16.8-12 7.7-15.7Z" style="stroke:#e0f9f8;fill:none;stroke-width:.3px"/><path d="M429.4 129.2c3.2-5.5-3.2-14.4-9.2-8.2-6.1 6.1 2.7 10.3 9.2 8.2m-1-7c.2 4.5-7.1 3.7-8 0 2.7-1.5 5.1-.3 8 0Z" style="stroke:#f7f9fb;fill:none;stroke-width:.3px"/><path d="M428.4 122.2c-2.9-.3-5.3-1.5-8 0 .9 3.7 8.2 4.5 8 0Z" style="stroke:#e9fdf1;fill:none;stroke-width:.3px"/><path d="M545.4 144.2c.4.9 2.9 1.2 2 3h-10c-7.3-1.5-22.1 14.1-12 17s20.5-4.8 23-14c6.2 4.9 10.1 13.1 14.7 20.3 4.6 7.1 7.3 15 11.4 22.6 4.1 7.6 6.1 16 9.9 24.1 3.9 8 3.2 18.7 7 26.9 3.9 8.2 1.3 21 4.9 29.1h2c-.8-7.9-2.2-17.7-4.1-25.9-1.8-8.2-4.2-16.7-6.6-24.4-2.4-7.7-6.3-14.9-8.5-22.5s-6.5-14.3-10-21c-3.5-6.7-8.8-14-7.8-19.2-5.8-1.3-7.1-10.1-13-11-.5-10.1-10.3-16.3-17-23 4.7 5.4 10.8 11.5 14 18m-6.9 9c7.5 3.4-3.2 9.1 0 0Z" style="stroke:#ddfaf9;fill:none;stroke-width:.3px"/><path d="M184.4 127.2c-4.2 10.2-4.5 23.2-13.2 31.8-8.8 8.6-21.5 8.8-31.8 13.2 24.2-.6 43.5 17.9 44 42 4.7-9.5 4.8-22.7 13.2-30.8s21-8.1 30.8-12.2c-23.8-1.1-43.6-19.4-43-44Z" style="stroke:#f1f6f6;fill:none;stroke-width:.3px"/><path d="M354.4 136.2c-3.7-1-8.2-3.4-12-5 4.2 2.6 6.7 4.1 12 5Z" style="stroke:#a6eeec;fill:none;stroke-width:.3px"/><path d="M406.4 182.2c-.2 4.3-.2 8.7 0 13 1.6 42.5 52.9 62.6 87 43 6.6-5.1 7.8-14.8 15-17-3.7-2.8 0-4.7 2-1 2.6-6.5 5.1-14.1 9-19 6.5-31.9-13.6-63.7-45.8-69.2-32.1-5.5-65.4 17.5-67.2 50.2m66-34c28.8 6 42 40 25.2 64.2-16.8 24.2-52.5 22.7-69-.5s-2.2-62.6 27.8-63.8c5.1-.7 10.9-1.1 16 0m-56 67.1c10.3 1.1-1 11.3 0 0Z" style="stroke:#062d3d;fill:none;stroke-width:.3px"/><path d="M537.4 147.2h10c.9-1.8-1.6-2.1-2-3 .2 2.9-5 2.3-8 3Z" style="stroke:#8adfde;fill:none;stroke-width:.3px"/><path d="M378.4 145.2c3.3 8.5 5.2 13.1 14.3 17.7 9.1 4.6 18.2-2.6 9.4-10.4s-12.8-6.8-23.8-7.2m23.1 9.9c-2.2-3.3-8.1 3.1-7-4 2.8.5 6.1.2 7 4Z" style="stroke:#e4fafa;fill:none;stroke-width:.3px"/><path d="M456.4 148.2c5.7-.2 12.8 0 16 0-5.1-1.1-10.9-.7-16 0Z" style="stroke:#c8e3e0;fill:none;stroke-width:.3px"/><path d="M472.4 148.2c-3.2 0-10.3-.2-16 0-30 1.1-44.3 40.6-27.8 63.8 16.5 23.2 52.2 24.7 69 .5 16.8-24.2 3.6-58.3-25.2-64.2Z" style="stroke:#fafafb;fill:none;stroke-width:.3px"/><path d="M304.4 180.2c3.2 8.8 3.8 18.3 7 27 5-19.9 8.7-45.5 30-56h-6c-4.5 6.2-11.2 11.2-15.1 18.9-3.9 7.7-5.7 17.6-7.9 26.1-5.1-3.2-3.6-10.6-4-16-1.6-.3-2.7 1.5-4 0Z" style="stroke:#d2f9fa;fill:none;stroke-width:.3px"/><path d="M401.4 155.2c-.9-3.8-4.2-3.5-7-4-1.1 7.1 4.8.7 7 4Z" style="stroke:#fbf5fd;fill:none;stroke-width:.3px"/><path d="M538.4 153.2c-3.2 9.1 7.5 3.4 0 0Z" style="stroke:#fdf6fa;fill:none;stroke-width:.3px"/><path d="M406.4 195.2c-.2-4.3-.2-8.7 0-13-.7 4.2-.6 8.7 0 13Z" style="stroke:#07646e;fill:none;stroke-width:.3px"/><path d="M380.4 187.2c-9.9-3.5-15.4 10.7-6.2 15.2s14.9-12.2 6.2-15.2m2 11c-4.1 5.2-13.5 1.7-10.7-5.7 2.8-7.4 13.3-.3 10.7 5.7Z" style="stroke:#cbfafb;fill:none;stroke-width:.3px"/><path d="M554.4 187.2c-10.2-3.6-16.7 10-7.2 15.2 9.5 5.2 16.2-12 7.2-15.2m0 14c-4.5 1.8-8.4-.4-11-4 .9-4.7 3.7-10.4 9.7-7.7 6 2.7 1.8 9 1.3 11.7Z" style="stroke:#c3f8f9;fill:none;stroke-width:.3px"/><path d="M109.4 188.2c-5.4-1.5-8.5 6.7-3 9s8.4-7.5 3-9Z" style="stroke:#d3e5e8;fill:none;stroke-width:.3px"/><path d="M382.4 198.2c2.7-5.9-7.9-13.1-10.7-5.7-2.8 7.4 6.5 10.8 10.7 5.7Z" style="stroke:#f4f9fb;fill:none;stroke-width:.3px"/><path d="M554.4 201.2c.5-2.7 4.7-9-1.3-11.7-6-2.7-8.8 2.9-9.7 7.7 2.6 3.6 6.5 5.8 11 4Z" style="stroke:#f3f9fa;fill:none;stroke-width:.3px"/><path d="M493.4 238.2c1.6-.9 3.5-1.9 5-3 3.4-2.9 8.2-7.6 11-11 5.2-7.2 8.2-14.4 10-23-3.9 4.9-6.4 12.5-9 19-2.1-3.7-5.7-1.8-2 1-7.2 2.2-8.4 11.9-15 17Z" style="stroke:#023e49;fill:none;stroke-width:.3px"/><path d="M142.4 202.2c-5.7-1.8-8.6 6.8-3 9 5.6 2.1 8-7.5 3-9Z" style="stroke:#dae6eb;fill:none;stroke-width:.3px"/><path d="M416.4 215.2c-1 11.3 10.3 1.1 0 0Z" style="stroke:#0f233f;fill:none;stroke-width:.3px"/><path d="M82.4 383.2c-.3 0-.7-.9-1-1-2.4-1.2-4.9-2.4-7-4-14.2-10.7-23.6-27.6-24-45-.6-4.8-.4-10.3 0-15 0-35.1 20.9-68 43-94 10.2 7.4 15.3 19.1 23 28-4.6-11.5-15-19.8-18-31-3.1 1.2-6.9-.9-10-2 .9 5.8-3.1 9.7-9 8 3.5 3.5 3.9 11.6-3 9 1.6 5.3-2.1 11.1-7 8 4.7 3.6-.2 10-3.2 15.8-3 5.7-6.4 12.3-8.8 18.2-2.4 5.9-3.9 15.4-6.2 20.8-2.3 5.4-1.9 21-5.8 13.2-1.5 14.7 5.1 31.6 9.7 45.3 4.6 13.7 16.4 20.2 27.3 28.7.2-1-.2-2.1 0-3Z" style="stroke:#0e3630;fill:none;stroke-width:.3px"/><path d="M380.4 239.2c11.1-.1 16.1 1.1 24.1-7.9s-2.2-14.2-11-10c-8.9 4.2-10.9 9.7-13.1 17.9m26-17c-1.1 7.3-8.1 11.8-13 16-4.2.6-7.7-1.6-12-1 4.4-8.5 13.5-17.5 25-15Z" style="stroke:#cbfafa;fill:none;stroke-width:.3px"/><path d="M547.4 239.2c-2.8-12.7-15.4-22.3-29-19 1.6 13.7 15.6 21.8 29 19m-15-17c3.3 3.2 17.4 15.1 7 16-10.4.9-16.5-7.5-17-16h10Z" style="stroke:#ccfbfb;fill:none;stroke-width:.3px"/><path d="M406.4 222.2c-11.5-2.5-20.6 6.5-25 15 4.3-.6 7.8 1.6 12 1 4.9-4.2 11.9-8.7 13-16Z" class="st59"/><path d="M532.4 222.2h-10c.5 8.5 6.6 16.9 17 16 10.4-.9-3.7-12.8-7-16Z" style="stroke:#f6fafa;fill:none;stroke-width:.3px"/><path d="M182.4 238.2c-8.5-.4-13.7-8-16-15-1.6 8.3-9.2 13.9-17 16 8.6.9 16 7.5 17 16 1.7-8.5 8.7-13.6 16-17Z" style="stroke:#e5eef0;fill:none;stroke-width:.3px"/><path d="M50.4 318.2c0 5-.1 10 0 15 .4 17.4 9.8 34.3 24 45-11.1-15.3-8.8-45.2-6-64 2.8-18.8 13.1-36.2 25-51 29.5 27.3 37.5 77.2 21 114 14.6-10.8 24-27.7 24-46v-12c0-24-12.2-43.8-21-65-.2-.5-.7-1.3-1-2-7.7-8.9-12.8-20.6-23-28-22.1 26-43 58.9-43 94Z" style="stroke:#b4d78d;fill:none;stroke-width:.3px"/><path d="M498.4 235.2c3.9-2.8 8.2-7 11-11-2.8 3.4-7.6 8.1-11 11Z" style="stroke:#0e7076;fill:none;stroke-width:.3px"/><path d="M332.4 243.2c-3.2 15.4-14.8 29.6-32 30 16.4 0 30.3 14.5 31 31 1.9-7.6 3.5-15.5 9.2-21.8 5.8-6.3 15.1-6.7 20.8-10.2-15.8.5-29.5-13.2-29-29m2 13c.9 9.5 10.5 14.4 18 17-10 2.1-16.7 13.9-22 21-.9-10.9-11.2-17-20-21 9-1.6 17.8-9.4 19-19 1.1 2.7 3 .8 5 2Z" style="stroke:#c8f7f8;fill:none;stroke-width:.3px"/><path d="M448.4 252.2c-11.6-4.3-18.2 11-8 17s17.7-13.5 8-17m-3 1c8.3.8 5.8 16.1-3 14-8.8-2.1-4.7-14.8 3-14Z" style="stroke:#ccfafb;fill:none;stroke-width:.3px"/><path d="M485.4 252.2c-11.8-3.6-17.8 11.2-7.2 17.2 10.6 6 18.3-13.9 7.2-17.2m4 7c1 9-10.1 13.3-13.8 3.8-3.7-9.5 9.3-11.5 13.8-3.8Z" style="fill:none;stroke-width:.3px;stroke:#c0f5f6"/><path d="M445.4 253.2c-7.7-.8-11.8 11.9-3 14 8.8 2.1 11.3-13.2 3-14Z" style="stroke:#f5f9f7;fill:none;stroke-width:.3px"/><path d="M138.4 319.2c.4 3.8.4 8.3 0 12 0 18.3-9.4 35.2-24 46-2.3 1.7-4.6 5-8 5-4.2 0-1.1-12.4-2-18s1.1-16 0-22 2.5-16.3-1-21v3c-.3 20 .8 40.4-1 60 7.3.8 13.9-4.4 18.2-9.8s9.8-9.5 12.8-15.2c2.9-5.8 6.8-10.9 7-18s.2-20.4 0-28c-.2-7.5-2.4-15.8-4.7-22.3-2.3-6.6-4.4-14.8-7.4-20.6-3-5.8-6.7-13.7-10.9-16.1 8.8 21.2 21 41 21 65Z" style="stroke:#0b3028;fill:none;stroke-width:.3px"/><path d="M334.4 256.2c-2-1.2-3.9.7-5-2-1.2 9.6-10 17.4-19 19 8.8 4 19.1 10.1 20 21 5.3-7.1 12-18.9 22-21-7.5-2.6-17.1-7.5-18-17Z" style="stroke:#f8fbfb;fill:none;stroke-width:.3px"/><path d="M489.4 259.2c-4.4-7.7-17.5-5.7-13.8 3.8 3.7 9.5 14.8 5.3 13.8-3.8m-8 0c-.7 2.9 1.1 5.2 1 8-4.2 1.5-4.3-8.1-1-8Z" style="stroke:#f2faf9;fill:none;stroke-width:.3px"/><path d="M481.4 259.2c-3.3 0-3.2 9.5 1 8 0-2.8-1.7-5.1-1-8Z" style="stroke:#fef2fa;fill:none;stroke-width:.3px"/><path d="M74.4 378.2c2.1 1.6 4.6 2.8 7 4 5.3-17.8-2-40.9 2-59 2.3-10.3 15.7-20.6 20-5 4.1 8 1.1 21.8 2 31s-1.4 10.9 0 17-3.3 13.4 1 16c3.4 0 5.7-3.3 8-5 16.5-36.8 8.5-86.7-21-114-11.9 14.8-22.2 32.2-25 51-2.8 18.8-5.1 48.7 6 64Z" style="stroke:#649b3f;fill:none;stroke-width:.3px"/><path d="M223.4 379.2c.4-3.6 2.2-8.4 6-10 6.6-2.8 10.3 6.2 11.7 12.3 1.4 6.2-1 18.9.3 25.7s-3 19.5 1 25c-2.4-16.2 1.1-33.6 0-50-.4-5.9-2.4-15.3-10-16-7.7-.6-10.6 9.9-11 16-.9 17.3.7 34.7 0 52-1.9-1-4.2-1.8-5-4-1.6-1.1-3.4-1.7-5-3-47.9-39.3-13.3-110.5 19-148 17.2 15 28.7 36.9 37 58-.6-9.3-6.2-18.7-11.1-27.9-4.9-9.3-11.6-14.2-17-24s-19.3-6.5-18.9 4.9c-7 6.3-13.9 15.8-18.7 25.3-4.8 9.5-8.7 22.1-11.3 32.7-2.6 10.7-7.2 24.9-6 36 1.2 11.1 8.7 21.3 12 32-2.3-2.1-6-.3-5 3 3.5 1 4.2-2.1 7-3 1.1 2.2 2.5 4.3 2 7 8.6 3.4 22.5 21.2 23 3s-2.1-29.7 0-47Z" style="stroke:#0d352c;fill:none;stroke-width:.3px"/><path d="M211.4 427.2c-5.2-7.3-5.4-18.2-7-27s.6-24.8 2.3-32.7c1.7-7.9 5.7-19.8 9.9-25.1 4.3-5.3 9.3-19.6 16.4-17.9 7.1 1.7 10.5 13.2 15.1 18.9 4.6 5.7 7.7 17.6 9.6 25.4 1.8 7.9 3 24.7 1.7 33.3s-3.1 19.5-9 26c29.8-20.5 29.5-59.7 17-90 0 0 .2-.6 0-1-8.3-21.1-19.8-43-37-58-32.3 37.5-66.9 108.7-19 148Z" style="stroke:#b3d68c;fill:none;stroke-width:.3px"/><path d="M25.4 323.2v-24c-.7 7.5-.7 16.5 0 24Z" style="stroke:#6f838c;fill:none;stroke-width:.3px"/><path d="M378.4 303.2c-6.5-2.1-11.4 8-4.7 11.7s11.3-9.5 4.7-11.7m-1 2c3.2 1.1 2.2 8.6-2 7-4.2-1.6-1.4-8.2 2-7Z" style="stroke:#c0f9fa;fill:none;stroke-width:.3px"/><path d="M377.4 305.2c-3.4-1.2-6.2 5.4-2 7 4.2 1.6 5.2-5.9 2-7Z" style="stroke:#f3f7fa;fill:none;stroke-width:.3px"/><path d="M83.4 323.2c-2 19.4 2.8 39.7 0 59 .2-.2.8-.7 1-1 1.2-8.1-.6-15.8 0-24s-.5-15.5 0-24-1.1-11.2 5.2-18.8c6.4-7.6 10.5 5.1 13.8 5.8 0-.5.1-1.5 0-2-4.3-15.6-17.7-5.3-20 5Z" style="stroke:#063322;fill:none;stroke-width:.3px"/><path d="M521.4 331.2c9.8-1.5 21.4 2.1 31 0s23.1 3.8 32 0c4.3-6.2 6.9-14 10-21h-64c-.3 3.2-4.2 7.7-4.2 10.8 0 3-6.4 7.5-4.8 10.2Z" style="stroke:#f5f8f9;fill:none;stroke-width:.3px"/><path d="M84.4 381.2c2.4-10.6.2-25.9 1-37s-3.3-24 7-30c1.5 6.3-7.5 10.5-3 17 1.6-3.3 1-7.9 4-11 3 15.9-1 35.1 2 51 2.3-15 .3-32.2 1-48 4 1.7 3.3-1.1 6-2-.8 1.2.8 2.4 1 3v-4c-3.3-.7-7.4-13.3-13.8-5.8-6.4 7.6-4.7 10.2-5.2 18.8s.6 15.8 0 24 1.2 15.9 0 24m10-68c9.9-1.3-.1 9.8 0 0Z" style="stroke:#012c34;fill:none;stroke-width:.3px"/><path d="M459.4 330.2c5.5-1 14.6 2.9 21 1s15.9 2.7 22 0c4-5.5 6.3-12.7 9-19-8.4 2.8-19.1 4-26.9 8.1-7.9 4-18.2 4.5-25.1 9.9Z" style="stroke:#eff5f4;fill:none;stroke-width:.3px"/><path d="M94.4 313.2c-.1 9.8 9.9-1.3 0 0Z" style="stroke:#012944;fill:none;stroke-width:.3px"/><path d="M50.4 333.2c-.1-5 0-10 0-15-.4 4.7-.6 10.2 0 15Z" style="stroke:#89b195;fill:none;stroke-width:.3px"/><path d="M103.4 320.2v1c3.5 4.7-.1 15 1 21s-.9 16.4 0 22-2.2 18 2 18c-4.3-2.6.4-9.9-1-16s.9-7.8 0-17 2.1-23-2-31c.1.5 0 1.5 0 2Z" style="stroke:#43754a;fill:none;stroke-width:.3px"/><path d="M138.4 331.2c.4-3.7.4-8.2 0-12v12Z" style="stroke:#668c6d;fill:none;stroke-width:.3px"/><path d="M81.4 382.2c.3.1.7 1 1 1 0-.2.8-.8 1-1 2.8-19.3-2-39.6 0-59-4 18.1 3.3 41.2-2 59Z" style="stroke:#3d6e47;fill:none;stroke-width:.3px"/><path d="M211.4 427.2c1.6 1.3 3.4 1.9 5 3 1.3.2 2.4 1.6 4 1 .7-16.2-1.3-33.7 1-49 .3-6 3.3-16.6 11-16 7.7.6 9.6 10.1 10 16 .6 3.4 1.6 7.9 1 12s.7 8.9 0 13 1.4 9.1 0 13 2 9.7 2 11c1.3-.9 3.6-2.1 5-3 5.9-6.5 7.6-17.4 9-26s.2-25.5-1.7-33.3c-1.8-7.9-5-19.8-9.6-25.4-4.6-5.7-8-17.2-15.1-18.9-7.1-1.7-12.1 12.6-16.4 17.9-4.3 5.3-8.2 17.2-9.9 25.1-1.7 7.8-3.9 23.9-2.3 32.7s1.8 19.7 7 27Z" style="stroke:#63993f;fill:none;stroke-width:.3px"/><path d="M502.4 331.2c-6.1 2.7-15.6-1.9-22 0s-15.5-2-21-1c-1 .1-1.6 1.2-2 2 7.1-.8 16.1 1.1 23 0s16.4 2.6 22-1Z" style="stroke:#82989d;fill:none;stroke-width:.3px"/><path d="M584.4 331.2c-8.9 3.8-22.4-2.1-32 0s-21.2-1.5-31 0c2.4 3.9 15.9.2 21 1s16.4.1 22 0 15.5 1.9 20-1Z" style="stroke:#809299;fill:none;stroke-width:.3px"/><path d="M250.4 428.2c-1.4.9-3.7 2.1-5 3-.7.5-.8 2.2-2 2 5.2 4 17-8.1 20.8-13.2 3.7-5.1 11.2-15.9 12.5-23.5 1.3-7.7 3.3-25.3.1-32.5-3.1-7.2-.4-24.2-9.3-25.7 12.5 30.3 12.8 69.5-17 90Z" style="stroke:#0c312a;fill:none;stroke-width:.3px"/><path d="M590.4 412.2c.9 2 12.9 5.1 15 4 8.2-23.2 13.9-47.2 16-72-12.8-5.3-17.3 3.6-18 14-.7 10.4-3.5 18.8-5.7 28.3s-4.3 16.7-7.3 25.7Z" style="stroke:#2caab1;fill:none;stroke-width:.3px"/><path d="M434.4 346.2h63c-1.1-3.5-15.4-.4-20-1s-16.8-.5-22 0-17-2.3-21 1Z" style="stroke:#344f57;fill:none;stroke-width:.3px"/><path d="M527.4 346.2c5.2 0 10.9-.5 16 0s12.2-1.1 17 0 13.1-2.5 17 0c-4.6-4.6-18.2.5-25-1s-18.6.4-25 1Z" style="stroke:#2b444a;fill:none;stroke-width:.3px"/><path d="M425.4 368.2c6.7-.5 14.4.7 21 0s14.8 1.2 21 0 16.2 3 21-1c1.7-1.9 3.2-8.6 4.1-10.9s5.6-8 4.9-10.1h-63c-1.5 1.2-4 9.2-5 11-1 1.8-4.9 9.6-4 11ZM506.4 368.2c9.7-1.5 21.5 2 31 0s22.3 3.8 31 0c2.8-1.8 4.2-8.7 5.7-11.3 1.5-2.7 5.3-8.7 3.3-10.7-3.9-2.5-12.2 1.1-17 0s-11.9.5-17 0-10.8 0-16 0-15.4.2-15.1 6.9c.3 6.8-9.2 9.9-5.9 15.1Z" class="st59"/><path d="M393.4 399.2c-.6 1.1-2.4 2.2-2 4h-22c5.3-7.3 11.2-14.1 17-21 7.6-8.9 18.7-18.1 26-24 3.4.5 1.3-3.8-1-3-5.1 7.4-17.9 9.5-20 17-1.8-1.1-7.1-2.3-7 1 10.6-2.7 2.9 6.7-1.1 8.9s-7.6 11.6-10.9 9.1c-2 4.4-4.4 8.2-4 13h25c1.5-1.5-.1-4 0-5Z" style="stroke:#033947;fill:none;stroke-width:.3px"/><path d="M386.4 382.2c7.4-7.4 16.9-16.1 24-21 .5-.9 1.5-2 2-3-7.3 5.9-18.4 15.1-26 24Z" style="stroke:#20737b;fill:none;stroke-width:.3px"/><path d="M386.4 382.2c-5.8 6.9-11.7 13.7-17 21h22c-.4-1.8 1.4-2.9 2-4 6.4-11.9 10.2-26.4 17-38-7.1 4.9-16.6 13.6-24 21Z" style="stroke:#31abb2;fill:none;stroke-width:.3px"/><path d="M334.4 382.2c-8.9-1.5-14.3-8.9-17-17-.7 9.5-8.3 15-17 17 8.2 1.5 16.2 7.3 18 16 .5-8.9 8.7-13.8 16-16Z" style="stroke:#e6eef0;fill:none;stroke-width:.3px"/><path d="M425.4 368.2c2.4 3.9 15.9.2 21 1s16.4.2 22 0 16.4 2.2 20-2c-4.8 4-14.8-.2-21 1s-14.4-.7-21 0-14.3-.5-21 0Z" style="stroke:#6b7e84;fill:none;stroke-width:.3px"/><path d="M568.4 368.2c-8.7 3.8-21.5-2-31 0s-21.3-1.5-31 0c2.4 3.9 16 0 21 1s15.5.2 21 0 15.6 1.8 20-1Z" style="stroke:#64787e;fill:none;stroke-width:.3px"/><path d="M223.4 379.2c3.1.7 1.1-3.3 3-4 3.2 10.2-1.9 21.9 1 33s-3 20.5 2 27c2.2-5.9-.1-14.2 1-21s-1.8-17.9 0-24-4.8-17.2-1-21c-3.8 1.6-5.6 6.4-6 10Z" style="stroke:#022d37;fill:none;stroke-width:.3px"/><path d="M216.4 430.2c.8 2.2 3.1 3 5 4 .7-17.3-.9-34.7 0-52-2.3 15.3-.3 32.8-1 49-1.6.6-2.7-.8-4-1Z" style="stroke:#558559;fill:none;stroke-width:.3px"/><path d="M242.4 432.2c.2.3.7.8 1 1 1.2.2 1.3-1.5 2-2 0-1.3-3.4-7.1-2-11s-.7-8.9 0-13-.6-8.9 0-13-.4-8.6-1-12c1.1 16.4-2.4 33.8 0 50Z" style="stroke:#56875e;fill:none;stroke-width:.3px"/><path d="M417.4 384.2c4.1-3.4 14.7-.6 20-1s17-.7 22 0 18.7-2.8 21 1c-.2-3.6-13.2-2-19-2s-17-.6-23 0-17-2.6-21 2Z" style="stroke:#39555a;fill:none;stroke-width:.3px"/><path d="M499.4 383.2h63c-2.3-3.8-16-.2-21-1s-16.7-.3-22 0-16.1-2.2-20 1Z" style="stroke:#466166;fill:none;stroke-width:.3px"/><path d="M417.4 384.2c-2.1 6.5-5.9 12.5-8 19 8.6-.3 21.8.4 30 0s23.5.7 30 0 11.2-14 11-19c-2.3-3.8-16-.3-21-1s-16.7-.4-22 0-15.9-2.4-20 1ZM562.4 383.2h-63c-2.6 6.8-6.1 13.3-9 20 6.1.2 12.9-.3 19 0s12.1-.6 18 0 13.4-1.3 19 0 10.2-3 10.7-7.3 7.3-9.5 5.3-12.7Z" class="st136"/><path d="M154.4 389.2c-5.5-2.5-9.9 5.5-4.7 8.7 5.2 3.1 9.4-6.5 4.7-8.7Z" style="stroke:#dde8f0;fill:none;stroke-width:.3px"/><path d="M47.4 425.2c1.1 2.3 3.5 11.5 5 13 9.5.9 20.1 2.1 30 3-.8-9.3.6-18.7 0-28-4.1-3.5-15.1.4-20-2s-17 3.5-21-1c1.8 4.9 3.9 10.4 6 15Z" style="stroke:#b3d68d;fill:none;stroke-width:.3px"/><path d="M605.4 416.2c-2.1 1.1-14.1-2-15-4-4.5 13.3-10.7 27-14 41h15c3.9-12.6 9.5-24.7 14-37Z" style="stroke:#227f8b;fill:none;stroke-width:.3px"/><path d="M82.4 441.2h1c0-4.2.5-11 0-15s1.9-10.5-1-13c.6 9.3-.8 18.7 0 28Z" style="stroke:#90b491;fill:none;stroke-width:.3px"/><path d="M196.4 443.2c-11.3 4.1-23.5 8-34 14-10.9 6.2-21.2 17.4-29 27-7.4-.6-14.6-2.1-22-3-9.4-1.2-7-6.6-7-15v-51c1.3.3 3.5-.8 4 1 32 .7 62.2 15.9 92 25-1.2-2.8-4.7-3.1 0-5-4.6-2.9-14.1 3.2-12-6-5.4 1.2-12 1.1-16.3-1.7-4.3-2.8-12.9-3-15.7-6.3 3.8 1 1.2-3.1 5-2-2.6-2.9-5.9.2-7 3-9.9-.9-15.7-7.7-23.9-9.1-8.2-1.3-20 2.3-29.1-.9 2.3 19.9 2 40.5 2 61-4.5.3-5.3 5.7-4 9 2.9-3.7 10.7.3 16.8.2 6 0 11.6 6 17.2 3.8s4.9-10.5 12-10c1-5.6 8.8-13.8 14-10-.4-6.4 4.4.9 7.7-2.3 3.3-3.2-3.7-3.4-3.7-5.7 11.5-4.2 22.7-10 33-16Z" style="stroke:#08312d;fill:none;stroke-width:.3px"/><path d="M104.4 444.2h1c.8-9.3-.6-18.7 0-28h3c-.5-1.8-2.7-.7-4-1v29Z" style="stroke:#719778;fill:none;stroke-width:.3px"/><path d="M105.4 444.2c9.8 0 19.7 5.4 29.2 5.8 9.5.3 18.6 7.3 27.8 7.2 10.5-6 22.7-9.9 34-14 1.4-.5 3.3-.5 4-2-29.8-9.1-60-24.3-92-25h-3c-.6 9.3.8 18.7 0 28Z" style="stroke:#b5d78d;fill:none;stroke-width:.3px"/><path d="M359.4 418.2h24c-.8-2.5-9.3-.7-12-1s-9.8-.6-12 1Z" style="stroke:#55757a;fill:none;stroke-width:.3px"/><path d="M401.4 419.2c7.7-5.5 21.6 1 31-1s23.2 1.5 33 0c-2.5-4-16.9 0-22-1s-16.3 0-22 0-16-2-20 2Z" style="stroke:#58747b;fill:none;stroke-width:.3px"/><path d="M484.4 418.2c5.2-2.2 14.2.4 20 0s15.3-.9 21 0 16.3-2.9 21 0c-3.8-3.8-15.4-.2-21-1s-15.2-.2-21 0-15.4-2-20 1Z" style="stroke:#617e83;fill:none;stroke-width:.3px"/><path d="M355.4 427.2c6.6-2.6 17.3 3.5 23 1 .3-.7.5-1.4 1-2-3.7-3.5-15.9 3.2-20-1 2.9-9 15.6-6.2 22-4 .2-.5 2.3-2.1 2-3h-24c-1.9 1.4-2.9 6.9-4 9Z" style="stroke:#d8f5f6;fill:none;stroke-width:.3px"/><path d="M401.4 419.2c-1.5 1.5-2.5 5-3 7-.1.5 0 1 0 1 6.6.6 14.4.2 21 0s14.7 1.1 21 0 15.5 2.7 21 0c.7-1.5 4.9-7.6 4-9-9.8 1.5-23.6-2-33 0s-23.3-4.5-31 1Z" style="stroke:#f0fbfb;fill:none;stroke-width:.3px"/><path d="M480.4 427.2c8.5-4 23.1 3 32 0s23.2 4.5 31-1c.9-1.8 4.3-6.7 3-8-4.7-2.9-15.3.9-21 0s-15.2-.4-21 0-14.8-2.2-20 0c-2.8 1.8-2.9 6.3-4 9Z" style="stroke:#f0fcfc;fill:none;stroke-width:.3px"/><path d="M379.4 426.2c1.2-1.7 1.1-3.2 2-5-6.4-2.2-19.1-5-22 4 4.1 4.2 16.3-2.5 20 1Z" style="stroke:#f4f9f9;fill:none;stroke-width:.3px"/><path d="M28.4 438.2c7.9 0 16.2-.8 24 0-1.5-1.5-3.9-10.7-5-13-.4 1.6 1.4 2.5 1 4-4.8 4.4-16.6 3.6-20 9Z" style="stroke:#d0eabe;fill:none;stroke-width:.3px"/><path d="M392.4 438.2c.5-2.8 4.1-8.7 6-11 0 0-.1-.5 0-1-2.2.2-3.9 3.9-6 2-.5 3.7-1 7.5 0 10Z" style="stroke:#05414e;fill:none;stroke-width:.3px"/><path d="M480.4 427.2c-2.4 4.1-5.1 9.1-6 14 9.2.3 18.8-.4 28 0s18.9-.7 28 0c9.1.7 9.7-8.4 13-15-7.8 5.5-22.1-2-31 1s-23.5-4-32 0Z" style="stroke:#39b8b7;fill:none;stroke-width:.3px"/><path d="M344.4 448.2c6.4 1.2 13.2-5.6 20.7-4.3 7.5 1.3 9.9-7.3 12.3-12.7.5-1 .6-2.1 1-3-5.7 2.5-16.4-3.6-23-1-2 3.7-5 6.8-7.1 10.9-2.1 4.1-5 7.4-3.9 10.1Z" style="stroke:#35b1b2;fill:none;stroke-width:.3px"/><path d="M392.4 438.2c.2 1.2-.4 2.1-1 3h64c1.7-4.7 3.8-9.4 6-14-5.5 2.7-14.7-1.1-21 0s-14.4-.2-21 0-14.4.6-21 0c-1.9 2.3-5.5 8.2-6 11Z" style="stroke:#39b7b7;fill:none;stroke-width:.3px"/><path d="M344.4 448.2c2.6.2.2 2.1 1 3 6.1-.6 15.7-7.8 25-5 5.7-3 6.4-9.8 7-15-2.5 5.4-4.8 13.9-12.3 12.7-7.5-1.3-14.2 5.5-20.7 4.3Z" style="stroke:#013b44;fill:none;stroke-width:.3px"/><path d="M95.4 483.2c1.7-14.9 1.7-33.1 0-48-.5 15.5-3.6 33.8 0 48Z" style="stroke:#012c35;fill:none;stroke-width:.3px"/><path d="M28.4 441.2c2.5 6.1 6.4 13.4 10.1 18.9 3.6 5.5 6.1 13.6 10.9 18.1 6.3 4.2 21.5.5 29 1 1.3-.3 2.7.2 4 0v-38c-9.9-.9-20.5-2.1-30-3-7.8-.8-16.1 0-24 0 0 0-.7.2-1 0 .4.9.6 2 1 3Z" style="stroke:#619a40;fill:none;stroke-width:.3px"/><path d="M78.4 479.2c1.1 0 3.5 2 5 0 2.4-5-.9-13.4 0-19s0-13.2 0-19h-1v38c-1.3.2-2.7-.3-4 0Z" style="stroke:#508158;fill:none;stroke-width:.3px"/><path d="M111.4 481.2c-1.5-.3-3.9-1.8-6-1-.5-6.3.6-13.9 0-20s1.4-12.8 0-16h-1v22c0 8.4-2.4 13.8 7 15Z" style="stroke:#4c824f;fill:none;stroke-width:.3px"/><path d="M111.4 481.2c7.4.9 14.6 2.4 22 3 7.8-9.6 18.1-20.8 29-27-9.2.1-18.2-6.9-27.8-7.2-9.5-.4-19.5-5.7-29.2-5.8 1.4 3.2-.6 9.9 0 16s-.5 13.7 0 20c2.1-.8 4.5.7 6 1Z" style="stroke:#62993f;fill:none;stroke-width:.3px"/><path d="M284.4 460.2c-5.2-3-13.9-.3-21-1s-15.2 0-22 1c13.7 1.5 29.6 2.1 43 0Z" style="stroke:#002b33;fill:none;stroke-width:.3px"/><path d="M349.4 463.2c22.2-2.6 46.6-3.3 69-1-20.9-4.6-48.3-5-69 1Z" style="stroke:#014351;fill:none;stroke-width:.3px"/><path d="M349.4 463.2c-8.6 2.4-18.3 2.5-26 7 11.3 5.5 24.1-.7 37 0s27.9-.4 40 2 24.7 2.5 36 6c11.2 3.5 21.9 5.2 32.3 9.7 10.4 4.5 20.2 6.9 30 12s18.3 7.5 27 15 17.8.7 21.7-9.7c-39.4-23.3-83.1-38.3-129-43-22.4-2.3-46.8-1.6-69 1Z" style="stroke:#2db2b7;fill:none;stroke-width:.3px"/><path d="M203.4 472.2c8.6-.3 16.3-5.8 25.2-5.8 8.9 0 20.6-3 29.8-1.2s21.8-2.2 30 2c-5-6.2-22.9-3.4-31-3s-23.1-3.6-29.8-.8c-6.7 2.8-19.8 3-24.2 8.8Z" style="stroke:#11392b;fill:none;stroke-width:.3px"/><path d="M203.4 472.2h-1c-7.1 6.1-19.3 7.6-26.2 14.8-7 7.1-16.4 12.6-19.8 22.2 4.6-3.6 8.8-7.5 14-10 1.1-.5 1.8-.8 3-1 14.5-6.9 26.1-11.4 42-10 12.4 1.1 26.2-4.7 39-1-1 7.7-13.5 11.6-13 19 5.6-1.8 10.9-7.8 17-10 6.8-10.7 22.9-16.1 30-27 .3-1.5.9-.9 0-2-8.2-4.2-20.9-.2-30-2s-20.9 1.2-29.8 1.2c-8.9 0-16.6 5.5-25.2 5.8Z" style="stroke:#b2d58f;fill:none;stroke-width:.3px"/><path d="M258.4 496.2c.4-.2 1 0 1 0 8.6-6.6 27.1-16.4 29-27-7.1 10.9-23.2 16.3-30 27Z" style="stroke:#123423;fill:none;stroke-width:.3px"/><path d="M170.4 499.2c-5.2 2.5-9.4 6.4-14 10 3.3-9.6 12.8-15.1 19.8-22.2s19.1-8.7 26.2-14.8c-22.8 3.8-40 21.1-50 41 6.4-3 12.9-9.7 18-14Z" style="stroke:#153e31;fill:none;stroke-width:.3px"/><path d="M83.4 479.2c-1.5 2-3.9 0-5 0-7.5-.5-22.7 3.2-29-1 3.3 3.1 13.4 2.6 18 2s14.1 3 16-1Z" style="stroke:#164326;fill:none;stroke-width:.3px"/><path d="M298.4 510.2c-4.2-3.3-9.9-4.4-15-6 7.4-5.1 10.6-21 20.2-17.2 9.6 3.8 20.2 8.1 29.8 12.2-10-9.3-25.9-9.7-35-20-1.1 3.9-4.1 5.2-4 9-2.6.9-4.9-2-7 0 .7 2.9 2.3 3.2 3 6-2-1.2-3.9.7-5-2-.4 4.3-.7 7.5-4 11 4.2 2.6 9 5.8 5 11 3.6 0 7.2-1.4 7-5 1.5 1.2 3.2.8 5 1Z" style="stroke:#0b3230;fill:none;stroke-width:.3px"/><path d="M449.4 529.2c5.4 2 10.5 6.3 15.7 8.3 5.2 2 10.5 6.9 15.4 8.6 4.9 1.7 11.1 8.2 15.9 8.1.6-.5 1.4-.6 2-1 6.1-4.2 12.3-8.9 17-15-45.4-30.8-97-54.1-153-55 29.5 12.8 57 34.6 87 46Z" style="stroke:#2cb0b4;fill:none;stroke-width:.3px"/><path d="M298.4 510.2h1c17.4 2.8 33.2 15.5 49.7 21.3 16.5 5.8 29.8 18.3 45.6 25.4 15.8 7.1 28 21.1 42.8 29.2 1.5.5 2.4.7 4 1 5.6-.8 10.9-9.4 17-10-11.8-13.8-29.3-23-44-34-.3-.2-.8-.7-1-1-14.8-9.4-30.4-18-46-26-.7-.3-1.3-.7-2-1-9.9-5.1-22.5-9.2-31-16 0 0-.5.1-1 0-9.6-4.1-20.2-8.5-29.8-12.2-9.6-3.8-12.8 12.2-20.2 17.2 5.1 1.6 10.8 2.7 15 6Z" style="stroke:#b2d48c;fill:none;stroke-width:.3px"/><path d="M173.4 498.2c5-.2 9.7-5.8 14-1-2.5-8.7 12.4-3.4 17-8-2.9 4.1 2.2 6.1 2 10-12.1 2-20.8 11.1-31.1 16.9-10.3 5.8-18.6 14.1-22.9 24.1-1.2 2.8-7.6 7.7-1.8 9.8 5.8 2.1 9.1-1.1 13.8-1.8 4.6-.7 9.4-1.8 14-3 5-1.3 10.3-3.2 15-5 4-2.2 8.4-6.2 12-9-16.9 9.3-36.3 18.2-56 16 4.7-8.6 11.6-15.2 18.8-22.2 7.2-7.1 16.3-12.1 24.5-17.5 8.2-5.5 24.2-6.5 22.8-19.2-15.9-1.4-27.5 3.1-42 10m39.9-5.1c-3.3 1-5.2-1.4-8-2 .5-4.7 10.3-3.9 8 2Z" style="stroke:#0c382a;fill:none;stroke-width:.3px"/><path d="M215.4 488.2c1.4 12.7-14.6 13.8-22.8 19.2-8.2 5.5-17.3 10.5-24.5 17.5-7.2 7.1-14.1 13.6-18.8 22.2 19.7 2.2 39.1-6.7 56-16 8.2-4.5 14.9-11.8 23-16 3.8-3.1 7.4-11.8 13-9-.5-7.4 12-11.3 13-19-12.8-3.7-26.6 2.1-39 1Z" style="stroke:#629841;fill:none;stroke-width:.3px"/><path d="M213.4 493.2c2.3-5.9-7.5-6.7-8-2 2.8.6 4.7 3 8 2Z" style="stroke:#032c40;fill:none;stroke-width:.3px"/><path d="M60.4 492.2c5.8-3.3 16.7 2.5 23 0v26c-9.1-4.3-13.3-15-21-21 4.6 8.9 14.8 15.2 18 25 7.7-7.5 3.3-22.2 3-32-8-.3-14.9-.3-23-1-.2.9.3 2.1 0 3Z" style="stroke:#0d3327;fill:none;stroke-width:.3px"/><path d="M105.4 493.2c1.6-.7 2.1.8 3 1 4.9 1.1 10.1 0 15 1-3.8 10.2-11.7 19.4-15 30 5.5-1.9 3.1-9.9 9-11-2.5-6.2 9.3-13.2 6.8-18.8-2.6-5.6-16.1-6-18.8-2.2Z" style="stroke:#13382a;fill:none;stroke-width:.3px"/><path d="M62.4 497.2c7.7 6 11.9 16.7 21 21v-26c-6.3 2.5-17.2-3.3-23 0-.3 1 1.1 3.4 2 5Z" style="stroke:#abd091;fill:none;stroke-width:.3px"/><path d="M104.4 495.2c-.6 4.8-.3 11.2 0 16s-1.6 12.4 1 16v-33h3c-.9-.2-1.4-1.7-3-1-.8 1.1-.8.4-1 2Z" style="stroke:#719979;fill:none;stroke-width:.3px"/><path d="M105.4 527.2v1c2.5.6 2.4-1.8 3-3 3.3-10.6 11.2-19.8 15-30-4.9-1.1-10.1 0-15-1h-3v33Z" style="stroke:#adcf8e;fill:none;stroke-width:.3px"/><path d="M105.4 528.2v-1c-2.6-3.6-.7-11.2-1-16s-.6-11.2 0-16c-1.9 4.6-.4 14-1 19-.7 5-4.7 11.5 2 14Z" style="stroke:#022e28;fill:none;stroke-width:.3px"/><path d="M241.4 506.2c-4.9 1.5-8.5 6.6-13 9-8.1 4.2-14.8 11.5-23 16-3.6 2.8-8 6.8-12 9 8.2-4 15.4-10.1 24-13-2.5 4.8 3.8 4.1 7 4-5-3.3-6.4-10.6 2-9 1.2-4.9 6.1-6 8-10 7.6 2.8 10-5.6 19-3 1-3.3-2.4-3.8-4-5 4.1-1 6.6-5.3 10-8 0 0-.6-.2-1 0-6.1 2.2-11.4 8.2-17 10Z" style="stroke:#063030;fill:none;stroke-width:.3px"/><path d="M365.4 515.2c-3.6-4.3-9-8-14.9-9.1-6-1-9.9-6.8-16.1-6.9 8.5 6.8 21.1 10.9 31 16Z" style="stroke:#153a2c;fill:none;stroke-width:.3px"/><path d="M228.4 515.2c4.5-2.4 8.1-7.5 13-9-5.6-2.8-9.2 5.9-13 9Z" style="stroke:#103d21;fill:none;stroke-width:.3px"/><path d="M437.4 586.2c-14.8-8.2-27-22.1-42.8-29.2-15.8-7.1-29-19.6-45.6-25.4-16.5-5.8-32.3-18.5-49.7-21.3 2.3 2.8-2.5 2.7-3 5 5.3-2.7 8.3-.2 14 1-1.3 2.1 1.1 4.8-2 6 2.8-.5 9.6-1.8 4 1 3.3 0 12.4.7 6-3 3-.3 7.1 1.7 5 5 5.8-.8 7.8 8.3 13 6 .5-3.2-4.9-1.4-4-5 9.9 6.3 30.9 7.8 32 21 8.7-4.2 21.5 5.5 30.7 11.3 9.2 5.8 21.1 12.3 27.3 20.7 6-.2 9.6 5.1 15 7Z" style="stroke:#0b302c;fill:none;stroke-width:.3px"/><path d="M367.4 516.2c15.6 8 31.2 16.6 46 26-2.3-4.6-11.2-4.6-10-11-4.8 1.2-8.6-1.5-8-6-9.2 2-19-7.9-28-9Z" style="stroke:#0f342e;fill:none;stroke-width:.3px"/><path d="M238.4 569.2c4.7 2.4 5.9 2 11 2-7.2-2.7-14.6-4.7-22-7-2.3-.7-4.8-.8-7-2 1.2-1.5 3.3-2 5-3 5.2-3.5 10.2-7.9 15-12 5.5-5.5 12.2-16.1 19-19 8.9-3.8 20.3 5.9 29.2 7.8 8.9 1.9 19.5 8.6 28 12 8.5 3.4 5.8 2.2 13.9 6.1 8.1 3.9 18.4 9.7 26 14 7.6 4.3 7.3 4 12.6 7.4 5.3 3.4 8.2 5 12 7.9 3.9 3 9.6 5.2 12 8 2.4 2.9 11.3 6.2 11.3 8.7-2.5-8.7-23.2-11.9-16-21-2.9-.6-5.3 1-8 1-18.5-14.6-39.5-22.8-61-33-21.5-10.3-43.8-21.7-67-24-1.5 3.8 3.1 3.9 3 7-5.1 4.8-9-.3-14 2 8.6 1.8 2.1 11.9-4 9 2 4.5-3.7 7.1-8 7 5.8 6.2-11 6-10 13s13.7 5.3 19 8Z" style="stroke:#0a342e;fill:none;stroke-width:.3px"/><path d="M259.4 528.2c-1.8 1-3.6 4.6-5 6 7 4.4 15.1 6.8 22.7 10.3 7.5 3.5 16.1 6.5 23.4 10.6 7.2 4.1 14.2 8 21.6 11.4 7.5 3.4 14.2 9.4 21.5 12.5 7.3 3.1 12.9 10.2 20 13 7.1 2.7 13 12.8 19.8 14.2 6.4-1.4 12.6-3.4 19-5 .9-.2 1.7 0 2-1 0-2.5-8.9-5.8-11.3-8.7-2.4-2.9-8.1-5-12-8-3.9-3-6.7-4.5-12-7.9-5.3-3.4-5-3.1-12.6-7.4-7.6-4.3-17.9-10.1-26-14-8.1-3.9-5.4-2.8-13.9-6.1-8.5-3.4-19.1-10.1-28-12-8.9-1.9-20.3-11.6-29.2-7.8Z" style="stroke:#b2d68f;fill:none;stroke-width:.3px"/><path d="M240.4 547.2c4.7-4 9.6-8.7 14-13 1.4-1.4 3.2-5 5-6-6.8 2.9-13.5 13.5-19 19Z" style="stroke:#225332;fill:none;stroke-width:.3px"/><path d="M475.4 547.2c8.5 4.5 12.2 14.1 21 7-4.9 0-11-6.4-15.9-8.1-4.9-1.7-10.2-6.6-15.4-8.6-5.2-2-10.3-6.2-15.7-8.3 8.7 5.7 16.7 13 26 18Z" style="stroke:#1e767e;fill:none;stroke-width:.3px"/><path d="M240.4 547.2c-4.8 4.1-9.8 8.5-15 12-.7 1-1.5 1.9-2 3 1.6-.3 3.6.2 4 2 7.4 2.3 14.8 4.3 22 7 .7.3 1.2.7 2 1 6.3 2.3 12.7 4.6 19 7 .4.1.8.7 1 1 19.3 5.2 34.5 13.5 51.8 25.2s39.9 5.2 60.2.8c-6.8-1.4-12.7-11.5-19.8-14.2-7.1-2.7-12.7-9.9-20-13-7.3-3.1-14.1-9.1-21.5-12.5-7.4-3.4-14.4-7.3-21.6-11.4-7.2-4-15.9-7.1-23.4-10.6-7.5-3.5-15.7-5.9-22.7-10.3-4.4 4.3-9.3 9-14 13Z" style="stroke:#60983f;fill:none;stroke-width:.3px"/><path d="M178.4 545.2c-4.5 1.2-9.4 2.3-14 3-4.6.7-8 3.8-13.8 1.8-5.8-2.1.6-7 1.8-9.8-1.5.2-2.2 2.5-4 2 .7-8.8-8.6-7.6-6 1 4.7 0 4 3.7 2 6 12.3 8.5 23.1.4 34-4Z" class="st130"/><path d="M414.4 543.2c14.7 11 32.2 20.2 44 34-6.1.6-11.4 9.2-17 10 6.5 2.3 11.9-7.9 19-8-3.5-6-3-16.5-11-16-7.9.5-11.3-9.6-17.8-11.2-6.5-1.6-11.8-10.7-17.2-8.8Z" style="stroke:#0d342e;fill:none;stroke-width:.3px"/><path d="M498.4 553.2c-.6.4-1.4.5-2 1-8.8 7.1-12.5-2.5-21-7 4.7 3.2 6.5 5.8 11.3 9.7 4.8 3.9 7.8-.3 11.7-3.7Z" style="stroke:#14545e;fill:none;stroke-width:.3px"/><path d="M227.4 564.2c-.4-1.8-2.4-2.3-4-2 .5-1.1 1.3-2 2-3-1.7 1-3.8 1.5-5 3 2.2 1.2 4.7 1.3 7 2Z" style="stroke:#50805a;fill:none;stroke-width:.3px"/><path d="M273.4 583.2c-1.4-.8-1.4-1.6-2-3-.2-.3-.6-.9-1-1-5.1.7-14.7-3.5-19-7-.8-.3-1.3-.7-2-1-5.1 0-6.3.4-11-2-.8 5.3-13.9-.4-18 2 5.8 2.2 14.2 3.2 20 2s18.6.6 12 6c5.5-3 18.3-.9 15 7 2.2 1.3 6-3.2 6-3Z" class="st130"/><path d="M270.4 579.2c-6.3-2.4-12.7-4.7-19-7 4.3 3.5 13.9 7.7 19 7Z" style="stroke:#113c2a;fill:none;stroke-width:.3px"/><path d="M256.4 595.2c12.3 4.4 24.6 12.8 36 19-38-1.5-73.4-13.5-108-27 13.7-14.2 32.1-5.8 48-1-5.6-5.3-16.8-4.1-20-12-2.1 0-8 2.1-4-1-7.9-1.4-12.3 7.7-20 4 .7 5.9-6.8 3.5-6 10 .8 6.5 5.1 4.6 10 4 .6 3.3-6.4 1.1-3 5 8.1-4.5 15.5 2.4 23.3 4.7 7.8 2.3 17.2 3.5 24.6 6.4 7.4 2.9 20.1 1 22.1 8.9 3.2-.4 5.7 1.7 9 1 5.4-10.3 24.8 8.6 28-6-6.3-.9-8.1-7.7-14-10-7 5.3-17.2-4.1-26-6Z" style="stroke:#07332e;fill:none;stroke-width:.3px"/><path d="M256.4 595.2c-1.5-.3-2.6-.5-4-1-6.2-2.1-13.2-4-19-7-.3-.2-.8-.7-1-1-15.9-4.8-34.3-13.2-48 1 34.6 13.5 70 25.5 108 27-11.4-6.2-23.7-14.6-36-19Z" style="stroke:#61964a;fill:none;stroke-width:.3px"/><path d="M273.4 583.2c5.5 3 12.2 4 18 7 13.9 7.1 25.5 12.4 39 21s33 .6 48-2c8.4-1.4 17-3.7 24-8-6.4 1.6-12.6 3.6-19 5-20.3 4.4-43 11-60.2-.8s-32.4-20-51.8-25.2c.6 1.4.6 2.2 2 3Z" style="stroke:#0e3924;fill:none;stroke-width:.3px"/><path d="M233.4 587.2c5.8 3 12.8 4.9 19 7-5-2.5-13.5-8.9-19-7Z" style="stroke:#0e3c26;fill:none;stroke-width:.3px"/><path d="M378.4 609.2c-15 2.5-34.5 10.5-48 2-13.5-8.6-25.2-13.9-39-21 3.1 4.4 11.5 3.4 9 11 2.5-1.4 5-2.5 8-2-5.2 7 3.2 5.5 8 4 2.9 4.5 12.2 8.1 16.9 11.1 4.7 3 13.2 8.5 15.1 1.9 10.8.3 20.4-4.3 30-7Z" style="stroke:#022a32;fill:none;stroke-width:.3px"/><path d="M123.4 64.2c-3 2.5-6 5.4-9 8-5 4.3-9.9 8.7-15 13l-12 12c-7.2 8.5-14.5 15.9-21.2 24.8-6.7 8.9-12.1 17.4-18 27-5.9 9.6-11.7 18.7-16.8 29.2-5.1 10.5-8.9 20.7-13 32s-8 23.1-10.6 35.4c-2.6 12.3-5.3 25.5-6.3 38.7s-1.6 31.6-1 45 2.1 28 5 40 3.8 26.6 9.1 36.9c.8 1.7 1 3.6 1.6 5.4 3.1 9.5 4.1 20.6 11.3 26.7.3.2 1 0 1 0 3.4-5.4 15.2-4.6 20-9 .4-1.5-1.4-2.4-1-4-2.1-4.6-4.2-10.1-6-15-.5-1.2-.6-2.7-1-4-8.7-26.7-15-54-15-83-.7-7.5-.7-16.5 0-24 0-135 120.7-256.6 251-272 6.6-2.9 13.1-4.4 22-3-2-2.7-7.1.7-9-2 10-1.1 20 1.7 31 1s21.3 1.3 31 4c68.4 8.5 134.3 45.5 180 99 6.7 6.7 16.5 12.9 17 23 5.9.9 7.2 9.7 13 11-1 5.3 4.2 12.6 7.8 19.2 3.5 6.7 7.8 13.4 10 21s6.1 14.8 8.5 22.5c2.4 7.7 4.8 16.2 6.6 24.4 1.8 8.2 3.3 18 4.1 25.9 7.9.8 15.8 1.3 24 1-6.5-64.9-36.7-122.5-79-172l-13-13c-28.1-24-49-41.2-82.8-57.2C413.9 16 377.5 5.4 338.5 1.3s-86.9 4-123 15c-36 11-60.2 29.9-92 48Z" style="fill:#f7f9f9"/><path d="M276.4 27.2h3c2.7 0 5.3-.5 8-1 19.6-3.5 44.2-1.5 64 1-9.7-2.7-20-4.7-31-4-11 .7-21-2.1-31-1 1.9 2.7 7-.7 9 2-8.9-1.4-15.4 0-22 3Z" style="fill:#c8f3f2"/><path d="M287.4 26.2h5c-7.2.7-15.4 3.1-20 9-.9 1.1-2.2 2.1-3 3-6.8 10.9-13.2 19.2-19.1 30.9-5.9 11.7-9.5 23.9-13 37-3.5 13.1-5.5 28.7-5.9 43.1s2 31.8 5 45 6.9 26.2 12.1 37.9c5.2 11.8 10.1 21.9 17.2 31.8 7 10 13.6 19.4 22 28 8.4 8.6 16.3 16.8 25.5 23.5 9.3 6.7 19.9 15.6 30.1 19.9 10.2 4.3 24.2 14.7 34.9 15.1 10.6.4 17.4-15 28-19.5 10.5-4.5 19.6-14.6 31-19 11.4-4.4 21.8-12.2 34.2-15.8 12.4-3.6 24.2-8.3 37.4-11.7 13.2-3.3 27.6-6.1 41.7-8.3s31.2-3 46-3c-3.6-8-1.1-20.8-4.9-29.1-3.9-8.2-3.2-18.9-7-26.9-3.9-8.1-5.9-16.4-9.9-24.1-4.1-7.6-6.8-15.5-11.4-22.6-4.6-7.2-8.5-15.4-14.7-20.3-2.5 9.2-12.9 16.9-23 14s4.7-18.5 12-17c3-.7 8.2 0 8-3-3.2-6.5-9.3-12.6-14-18-45.7-53.5-111.6-90.5-180-99-19.8-2.5-44.4-4.5-64-1m25.8 53.1c3.4 20 8.4 43.1 29 52 3.8 1.6 8.3 4 12 5 5.6.9 12.6 2 17 5-10.1 3.3-20.7 4.8-30 10-21.3 10.5-25 36.1-30 56-3.2-8.7-3.8-18.2-7-27-8.8-26.5-35.3-37.5-61-39 31.1-1.9 65.5-21.4 65-57 .5-4 .8-8.9 3-12 1.6 1.7 1 4.8 2 7m91 0c-1.2 9.4 9.7 11.9 14 16-7-.3-13.6 6.2-14 13-4.5-3.9-7.1-14.3-16-13 6.5-3.1 12.4-9.8 16-16m59 10c7 7.6 9.3 14.3 8.1 25.1-1.3 10.8-12.2 13.1-14.9 1.7-2.6-11.4 1.6-17.4 6.8-26.8m-35 28c8.8 3.6 1.7 20.7-7.7 15.7s-2.4-19.8 7.7-15.7m80 0c9.1 3.7 2 21.1-7.7 15.7-9.7-5.5-3.4-20.2 7.7-15.7m11 84c-1.8 8.6-4.8 15.8-10 23-2.8 4-7.1 8.2-11 11-1.5 1.1-3.4 2.1-5 3-34.1 19.6-85.4-.5-87-43-.6-4.3-.7-8.8 0-13 1.8-32.7 35.1-55.7 67.2-50.2s52.3 37.3 45.8 69.2m-141-56c10.9.5 14.9-.5 23.8 7.2s-.3 15-9.4 10.4-11-9.2-14.3-17.7m1.9 42.1c8.7 3 3 19.7-6.2 15.2s-3.7-18.7 6.2-15.2m174 0c9 3.2 2.3 20.4-7.2 15.2-9.5-5.2-3-18.8 7.2-15.2m-174 52c2.1-8.2 4.2-13.7 13.1-17.9 8.8-4.2 19 1 11 10s-13 7.8-24.1 7.9m167 0c-13.4 2.8-27.4-5.3-29-19 13.6-3.3 26.2 6.3 29 19m-215 4c-.5 15.8 13.2 29.5 29 29-5.6 3.5-15 3.9-20.8 10.2-5.8 6.3-7.4 14.1-9.2 21.8-.7-16.5-14.6-31-31-31 17.2-.4 28.8-14.6 32-30m116 9c9.6 3.6 2.2 23-8 17s-3.5-21.3 8-17m37 0c11 3.4 3.3 23.2-7.2 17.2-10.6-6-4.5-20.8 7.2-17.2m-107 51c6.6 2.2 2.1 15.3-4.7 11.7s-1.9-13.8 4.7-11.7Z" style="fill:#26b3b6"/><path d="M279.4 27.2c-1.2 2.9-5.1 5.7-7 8 4.6-5.9 12.8-8.3 20-9h-5c-2.7.5-5.3.9-8 1Z" style="fill:#27919c"/><path d="M269.4 38.2c.8-.9 2.1-1.9 3-3 1.9-2.3 5.8-5.1 7-8h-1c-2.7 3.9-6.5 6.9-9 11Z" style="fill:#025461"/><path d="M308.4 84.2c.4-1.4 3.7-3.4 2-6 1.3-.5 1.9 1 3 1-1-2.2-.4-5.3-2-7-2.2 3.1-2.5 8-3 12Z" style="fill:#aef7f5"/><path d="M308.4 84.2c.5 35.6-33.9 55.1-65 57 25.7 1.5 52.2 12.5 61 39 1.3 1.5 2.4-.3 4 0 .4 5.4-1.1 12.8 4 16 2.2-8.5 4-18.4 7.9-26.1 3.9-7.7 10.5-12.7 15.1-18.9h6c9.3-5.2 19.9-6.7 30-10-4.4-3-11.4-4.1-17-5-5.3-.9-7.8-2.4-12-5-20.6-8.9-25.6-32-29-52-1.1 0-1.7-1.5-3-1 1.7 2.6-1.6 4.6-2 6Z" style="fill:#f5fbfb"/><path d="M404.4 79.2c-3.6 6.2-9.5 12.9-16 16 8.9-1.3 11.5 9.1 16 13 .4-6.8 7-13.3 14-13-4.3-4.1-15.2-6.6-14-16m2 11c-2.3 3.4 1.9 5.3 1 9-2.8.4-4.5-.1-6 2-1.7-4.3-1.4-9.3 0-14 1 1.9 3.1 2 5 3Z" style="fill:#d6f8f8"/><path d="M406.4 90.2c-1.9-1-4-1.1-5-3-1.4 4.7-1.7 9.7 0 14 1.5-2.1 3.2-1.6 6-2 .9-3.7-3.3-5.6-1-9Z" style="fill:#f9f9f9"/><path d="M207.4 88.2c-5.7-2.6-8.6 6-3.7 8.7 5 2.6 8.2-6.6 3.7-8.7Z" style="fill:#dbe8ef"/><path d="M463.4 89.2c-5.2 9.4-9.4 15.4-6.8 26.8 2.6 11.4 13.6 9.1 14.9-1.7 1.3-10.8-1.1-17.4-8.1-25.1Z" style="fill:#e6faf9"/><path d="M176.4 97.2c-5-3.5-10.1 4.9-5.2 8.2 4.8 3.3 8.8-5.7 5.2-8.2Z" style="fill:#d9e8ef"/><path d="M428.4 117.2c-10.1-4.1-17 10.6-7.7 15.7 9.4 5 16.5-12.1 7.7-15.7m1 12c-6.5 2.1-15.3-2.1-9.2-8.2 6-6.1 12.4 2.7 9.2 8.2Z" style="fill:#d2fbfb"/><path d="M508.4 117.2c-11.1-4.5-17.4 10.2-7.7 15.7s16.8-12 7.7-15.7Z" style="fill:#e0f9f8"/><path d="M429.4 129.2c3.2-5.5-3.2-14.4-9.2-8.2-6.1 6.1 2.7 10.3 9.2 8.2m-1-7c.2 4.5-7.1 3.7-8 0 2.7-1.5 5.1-.3 8 0Z" style="fill:#f7f9fb"/><path d="M428.4 122.2c-2.9-.3-5.3-1.5-8 0 .9 3.7 8.2 4.5 8 0Z" style="fill:#e9fdf1"/><path d="M545.4 144.2c.4.9 2.9 1.2 2 3h-10c-7.3-1.5-22.1 14.1-12 17s20.5-4.8 23-14c6.2 4.9 10.1 13.1 14.7 20.3 4.6 7.1 7.3 15 11.4 22.6 4.1 7.6 6.1 16 9.9 24.1 3.9 8 3.2 18.7 7 26.9 3.9 8.2 1.3 21 4.9 29.1h2c-.8-7.9-2.2-17.7-4.1-25.9-1.8-8.2-4.2-16.7-6.6-24.4-2.4-7.7-6.3-14.9-8.5-22.5s-6.5-14.3-10-21c-3.5-6.7-8.8-14-7.8-19.2-5.8-1.3-7.1-10.1-13-11-.5-10.1-10.3-16.3-17-23 4.7 5.4 10.8 11.5 14 18m-6.9 9c7.5 3.4-3.2 9.1 0 0Z" style="fill:#ddfaf9"/><path d="M184.4 127.2c-4.2 10.2-4.5 23.2-13.2 31.8-8.8 8.6-21.5 8.8-31.8 13.2 24.2-.6 43.5 17.9 44 42 4.7-9.5 4.8-22.7 13.2-30.8s21-8.1 30.8-12.2c-23.8-1.1-43.6-19.4-43-44Z" style="fill:#f1f6f6"/><path d="M354.4 136.2c-3.7-1-8.2-3.4-12-5 4.2 2.6 6.7 4.1 12 5Z" style="fill:#a6eeec"/><path d="M406.4 182.2c-.2 4.3-.2 8.7 0 13 1.6 42.5 52.9 62.6 87 43 6.6-5.1 7.8-14.8 15-17-3.7-2.8 0-4.7 2-1 2.6-6.5 5.1-14.1 9-19 6.5-31.9-13.6-63.7-45.8-69.2-32.1-5.5-65.4 17.5-67.2 50.2m66-34c28.8 6 42 40 25.2 64.2-16.8 24.2-52.5 22.7-69-.5s-2.2-62.6 27.8-63.8c5.1-.7 10.9-1.1 16 0m-56 67.1c10.3 1.1-1 11.3 0 0Z" style="fill:#062d3d"/><path d="M537.4 147.2h10c.9-1.8-1.6-2.1-2-3 .2 2.9-5 2.3-8 3Z" style="fill:#8adfde"/><path d="M378.4 145.2c3.3 8.5 5.2 13.1 14.3 17.7 9.1 4.6 18.2-2.6 9.4-10.4s-12.8-6.8-23.8-7.2m23.1 9.9c-2.2-3.3-8.1 3.1-7-4 2.8.5 6.1.2 7 4Z" style="fill:#e4fafa"/><path d="M456.4 148.2c5.7-.2 12.8 0 16 0-5.1-1.1-10.9-.7-16 0Z" style="fill:#c8e3e0"/><path d="M472.4 148.2c-3.2 0-10.3-.2-16 0-30 1.1-44.3 40.6-27.8 63.8 16.5 23.2 52.2 24.7 69 .5 16.8-24.2 3.6-58.3-25.2-64.2Z" style="fill:#fafafb"/><path d="M304.4 180.2c3.2 8.8 3.8 18.3 7 27 5-19.9 8.7-45.5 30-56h-6c-4.5 6.2-11.2 11.2-15.1 18.9-3.9 7.7-5.7 17.6-7.9 26.1-5.1-3.2-3.6-10.6-4-16-1.6-.3-2.7 1.5-4 0Z" style="fill:#d2f9fa"/><path d="M401.4 155.2c-.9-3.8-4.2-3.5-7-4-1.1 7.1 4.8.7 7 4Z" style="fill:#fbf5fd"/><path d="M538.4 153.2c-3.2 9.1 7.5 3.4 0 0Z" style="fill:#fdf6fa"/><path d="M406.4 195.2c-.2-4.3-.2-8.7 0-13-.7 4.2-.6 8.7 0 13Z" style="fill:#07646e"/><path d="M380.4 187.2c-9.9-3.5-15.4 10.7-6.2 15.2s14.9-12.2 6.2-15.2m2 11c-4.1 5.2-13.5 1.7-10.7-5.7 2.8-7.4 13.3-.3 10.7 5.7Z" style="fill:#cbfafb"/><path d="M554.4 187.2c-10.2-3.6-16.7 10-7.2 15.2 9.5 5.2 16.2-12 7.2-15.2m0 14c-4.5 1.8-8.4-.4-11-4 .9-4.7 3.7-10.4 9.7-7.7 6 2.7 1.8 9 1.3 11.7Z" style="fill:#c3f8f9"/><path d="M109.4 188.2c-5.4-1.5-8.5 6.7-3 9s8.4-7.5 3-9Z" style="fill:#d3e5e8"/><path d="M382.4 198.2c2.7-5.9-7.9-13.1-10.7-5.7-2.8 7.4 6.5 10.8 10.7 5.7Z" style="fill:#f4f9fb"/><path d="M554.4 201.2c.5-2.7 4.7-9-1.3-11.7-6-2.7-8.8 2.9-9.7 7.7 2.6 3.6 6.5 5.8 11 4Z" style="fill:#f3f9fa"/><path d="M493.4 238.2c1.6-.9 3.5-1.9 5-3 3.4-2.9 8.2-7.6 11-11 5.2-7.2 8.2-14.4 10-23-3.9 4.9-6.4 12.5-9 19-2.1-3.7-5.7-1.8-2 1-7.2 2.2-8.4 11.9-15 17Z" style="fill:#023e49"/><path d="M142.4 202.2c-5.7-1.8-8.6 6.8-3 9 5.6 2.1 8-7.5 3-9Z" style="fill:#dae6eb"/><path d="M416.4 215.2c-1 11.3 10.3 1.1 0 0Z" style="fill:#0f233f"/><path d="M82.4 383.2c-.3 0-.7-.9-1-1-2.4-1.2-4.9-2.4-7-4-14.2-10.7-23.6-27.6-24-45-.6-4.8-.4-10.3 0-15 0-35.1 20.9-68 43-94 10.2 7.4 15.3 19.1 23 28-4.6-11.5-15-19.8-18-31-3.1 1.2-6.9-.9-10-2 .9 5.8-3.1 9.7-9 8 3.5 3.5 3.9 11.6-3 9 1.6 5.3-2.1 11.1-7 8 4.7 3.6-.2 10-3.2 15.8-3 5.7-6.4 12.3-8.8 18.2-2.4 5.9-3.9 15.4-6.2 20.8-2.3 5.4-1.9 21-5.8 13.2-1.5 14.7 5.1 31.6 9.7 45.3 4.6 13.7 16.4 20.2 27.3 28.7.2-1-.2-2.1 0-3Z" style="fill:#0e3630"/><path d="M380.4 239.2c11.1-.1 16.1 1.1 24.1-7.9s-2.2-14.2-11-10c-8.9 4.2-10.9 9.7-13.1 17.9m26-17c-1.1 7.3-8.1 11.8-13 16-4.2.6-7.7-1.6-12-1 4.4-8.5 13.5-17.5 25-15Z" style="fill:#cbfafa"/><path d="M547.4 239.2c-2.8-12.7-15.4-22.3-29-19 1.6 13.7 15.6 21.8 29 19m-15-17c3.3 3.2 17.4 15.1 7 16-10.4.9-16.5-7.5-17-16h10Z" style="fill:#ccfbfb"/><path d="M406.4 222.2c-11.5-2.5-20.6 6.5-25 15 4.3-.6 7.8 1.6 12 1 4.9-4.2 11.9-8.7 13-16Z" class="st191"/><path d="M532.4 222.2h-10c.5 8.5 6.6 16.9 17 16 10.4-.9-3.7-12.8-7-16Z" style="fill:#f6fafa"/><path d="M182.4 238.2c-8.5-.4-13.7-8-16-15-1.6 8.3-9.2 13.9-17 16 8.6.9 16 7.5 17 16 1.7-8.5 8.7-13.6 16-17Z" style="fill:#e5eef0"/><path d="M50.4 318.2c0 5-.1 10 0 15 .4 17.4 9.8 34.3 24 45-11.1-15.3-8.8-45.2-6-64 2.8-18.8 13.1-36.2 25-51 29.5 27.3 37.5 77.2 21 114 14.6-10.8 24-27.7 24-46v-12c0-24-12.2-43.8-21-65-.2-.5-.7-1.3-1-2-7.7-8.9-12.8-20.6-23-28-22.1 26-43 58.9-43 94Z" style="fill:#b4d78d"/><path d="M498.4 235.2c3.9-2.8 8.2-7 11-11-2.8 3.4-7.6 8.1-11 11Z" style="fill:#0e7076"/><path d="M332.4 243.2c-3.2 15.4-14.8 29.6-32 30 16.4 0 30.3 14.5 31 31 1.9-7.6 3.5-15.5 9.2-21.8 5.8-6.3 15.1-6.7 20.8-10.2-15.8.5-29.5-13.2-29-29m2 13c.9 9.5 10.5 14.4 18 17-10 2.1-16.7 13.9-22 21-.9-10.9-11.2-17-20-21 9-1.6 17.8-9.4 19-19 1.1 2.7 3 .8 5 2Z" style="fill:#c8f7f8"/><path d="M448.4 252.2c-11.6-4.3-18.2 11-8 17s17.7-13.5 8-17m-3 1c8.3.8 5.8 16.1-3 14-8.8-2.1-4.7-14.8 3-14Z" style="fill:#ccfafb"/><path d="M485.4 252.2c-11.8-3.6-17.8 11.2-7.2 17.2 10.6 6 18.3-13.9 7.2-17.2m4 7c1 9-10.1 13.3-13.8 3.8-3.7-9.5 9.3-11.5 13.8-3.8Z" style="fill:#c0f5f6"/><path d="M445.4 253.2c-7.7-.8-11.8 11.9-3 14 8.8 2.1 11.3-13.2 3-14Z" style="fill:#f5f9f7"/><path d="M138.4 319.2c.4 3.8.4 8.3 0 12 0 18.3-9.4 35.2-24 46-2.3 1.7-4.6 5-8 5-4.2 0-1.1-12.4-2-18s1.1-16 0-22 2.5-16.3-1-21v3c-.3 20 .8 40.4-1 60 7.3.8 13.9-4.4 18.2-9.8s9.8-9.5 12.8-15.2c2.9-5.8 6.8-10.9 7-18s.2-20.4 0-28c-.2-7.5-2.4-15.8-4.7-22.3-2.3-6.6-4.4-14.8-7.4-20.6-3-5.8-6.7-13.7-10.9-16.1 8.8 21.2 21 41 21 65Z" style="fill:#0b3028"/><path d="M334.4 256.2c-2-1.2-3.9.7-5-2-1.2 9.6-10 17.4-19 19 8.8 4 19.1 10.1 20 21 5.3-7.1 12-18.9 22-21-7.5-2.6-17.1-7.5-18-17Z" style="fill:#f8fbfb"/><path d="M489.4 259.2c-4.4-7.7-17.5-5.7-13.8 3.8 3.7 9.5 14.8 5.3 13.8-3.8m-8 0c-.7 2.9 1.1 5.2 1 8-4.2 1.5-4.3-8.1-1-8Z" style="fill:#f2faf9"/><path d="M481.4 259.2c-3.3 0-3.2 9.5 1 8 0-2.8-1.7-5.1-1-8Z" style="fill:#fef2fa"/><path d="M74.4 378.2c2.1 1.6 4.6 2.8 7 4 5.3-17.8-2-40.9 2-59 2.3-10.3 15.7-20.6 20-5 4.1 8 1.1 21.8 2 31s-1.4 10.9 0 17-3.3 13.4 1 16c3.4 0 5.7-3.3 8-5 16.5-36.8 8.5-86.7-21-114-11.9 14.8-22.2 32.2-25 51-2.8 18.8-5.1 48.7 6 64Z" style="fill:#649b3f"/><path d="M223.4 379.2c.4-3.6 2.2-8.4 6-10 6.6-2.8 10.3 6.2 11.7 12.3 1.4 6.2-1 18.9.3 25.7s-3 19.5 1 25c-2.4-16.2 1.1-33.6 0-50-.4-5.9-2.4-15.3-10-16-7.7-.6-10.6 9.9-11 16-.9 17.3.7 34.7 0 52-1.9-1-4.2-1.8-5-4-1.6-1.1-3.4-1.7-5-3-47.9-39.3-13.3-110.5 19-148 17.2 15 28.7 36.9 37 58-.6-9.3-6.2-18.7-11.1-27.9-4.9-9.3-11.6-14.2-17-24s-19.3-6.5-18.9 4.9c-7 6.3-13.9 15.8-18.7 25.3-4.8 9.5-8.7 22.1-11.3 32.7-2.6 10.7-7.2 24.9-6 36 1.2 11.1 8.7 21.3 12 32-2.3-2.1-6-.3-5 3 3.5 1 4.2-2.1 7-3 1.1 2.2 2.5 4.3 2 7 8.6 3.4 22.5 21.2 23 3s-2.1-29.7 0-47Z" style="fill:#0d352c"/><path d="M211.4 427.2c-5.2-7.3-5.4-18.2-7-27s.6-24.8 2.3-32.7c1.7-7.9 5.7-19.8 9.9-25.1 4.3-5.3 9.3-19.6 16.4-17.9 7.1 1.7 10.5 13.2 15.1 18.9 4.6 5.7 7.7 17.6 9.6 25.4 1.8 7.9 3 24.7 1.7 33.3s-3.1 19.5-9 26c29.8-20.5 29.5-59.7 17-90 0 0 .2-.6 0-1-8.3-21.1-19.8-43-37-58-32.3 37.5-66.9 108.7-19 148Z" style="fill:#b3d68c"/><path d="M25.4 323.2v-24c-.7 7.5-.7 16.5 0 24Z" style="fill:#6f838c"/><path d="M378.4 303.2c-6.5-2.1-11.4 8-4.7 11.7s11.3-9.5 4.7-11.7m-1 2c3.2 1.1 2.2 8.6-2 7-4.2-1.6-1.4-8.2 2-7Z" style="fill:#c0f9fa"/><path d="M377.4 305.2c-3.4-1.2-6.2 5.4-2 7 4.2 1.6 5.2-5.9 2-7Z" style="fill:#f3f7fa"/><path d="M83.4 323.2c-2 19.4 2.8 39.7 0 59 .2-.2.8-.7 1-1 1.2-8.1-.6-15.8 0-24s-.5-15.5 0-24-1.1-11.2 5.2-18.8c6.4-7.6 10.5 5.1 13.8 5.8 0-.5.1-1.5 0-2-4.3-15.6-17.7-5.3-20 5Z" style="fill:#063322"/><path d="M521.4 331.2c9.8-1.5 21.4 2.1 31 0s23.1 3.8 32 0c4.3-6.2 6.9-14 10-21h-64c-.3 3.2-4.2 7.7-4.2 10.8 0 3-6.4 7.5-4.8 10.2Z" style="fill:#f5f8f9"/><path d="M84.4 381.2c2.4-10.6.2-25.9 1-37s-3.3-24 7-30c1.5 6.3-7.5 10.5-3 17 1.6-3.3 1-7.9 4-11 3 15.9-1 35.1 2 51 2.3-15 .3-32.2 1-48 4 1.7 3.3-1.1 6-2-.8 1.2.8 2.4 1 3v-4c-3.3-.7-7.4-13.3-13.8-5.8-6.4 7.6-4.7 10.2-5.2 18.8s.6 15.8 0 24 1.2 15.9 0 24m10-68c9.9-1.3-.1 9.8 0 0Z" style="fill:#012c34"/><path d="M459.4 330.2c5.5-1 14.6 2.9 21 1s15.9 2.7 22 0c4-5.5 6.3-12.7 9-19-8.4 2.8-19.1 4-26.9 8.1-7.9 4-18.2 4.5-25.1 9.9Z" style="fill:#eff5f4"/><path d="M94.4 313.2c-.1 9.8 9.9-1.3 0 0Z" style="fill:#012944"/><path d="M50.4 333.2c-.1-5 0-10 0-15-.4 4.7-.6 10.2 0 15Z" style="fill:#89b195"/><path d="M103.4 320.2v1c3.5 4.7-.1 15 1 21s-.9 16.4 0 22-2.2 18 2 18c-4.3-2.6.4-9.9-1-16s.9-7.8 0-17 2.1-23-2-31c.1.5 0 1.5 0 2Z" style="fill:#43754a"/><path d="M138.4 331.2c.4-3.7.4-8.2 0-12v12Z" style="fill:#668c6d"/><path d="M81.4 382.2c.3.1.7 1 1 1 0-.2.8-.8 1-1 2.8-19.3-2-39.6 0-59-4 18.1 3.3 41.2-2 59Z" style="fill:#3d6e47"/><path d="M211.4 427.2c1.6 1.3 3.4 1.9 5 3 1.3.2 2.4 1.6 4 1 .7-16.2-1.3-33.7 1-49 .3-6 3.3-16.6 11-16 7.7.6 9.6 10.1 10 16 .6 3.4 1.6 7.9 1 12s.7 8.9 0 13 1.4 9.1 0 13 2 9.7 2 11c1.3-.9 3.6-2.1 5-3 5.9-6.5 7.6-17.4 9-26s.2-25.5-1.7-33.3c-1.8-7.9-5-19.8-9.6-25.4-4.6-5.7-8-17.2-15.1-18.9-7.1-1.7-12.1 12.6-16.4 17.9-4.3 5.3-8.2 17.2-9.9 25.1-1.7 7.8-3.9 23.9-2.3 32.7s1.8 19.7 7 27Z" style="fill:#63993f"/><path d="M502.4 331.2c-6.1 2.7-15.6-1.9-22 0s-15.5-2-21-1c-1 .1-1.6 1.2-2 2 7.1-.8 16.1 1.1 23 0s16.4 2.6 22-1Z" style="fill:#82989d"/><path d="M584.4 331.2c-8.9 3.8-22.4-2.1-32 0s-21.2-1.5-31 0c2.4 3.9 15.9.2 21 1s16.4.1 22 0 15.5 1.9 20-1Z" style="fill:#809299"/><path d="M250.4 428.2c-1.4.9-3.7 2.1-5 3-.7.5-.8 2.2-2 2 5.2 4 17-8.1 20.8-13.2 3.7-5.1 11.2-15.9 12.5-23.5 1.3-7.7 3.3-25.3.1-32.5-3.1-7.2-.4-24.2-9.3-25.7 12.5 30.3 12.8 69.5-17 90Z" style="fill:#0c312a"/><path d="M590.4 412.2c.9 2 12.9 5.1 15 4 8.2-23.2 13.9-47.2 16-72-12.8-5.3-17.3 3.6-18 14-.7 10.4-3.5 18.8-5.7 28.3s-4.3 16.7-7.3 25.7Z" style="fill:#2caab1"/><path d="M434.4 346.2h63c-1.1-3.5-15.4-.4-20-1s-16.8-.5-22 0-17-2.3-21 1Z" style="fill:#344f57"/><path d="M527.4 346.2c5.2 0 10.9-.5 16 0s12.2-1.1 17 0 13.1-2.5 17 0c-4.6-4.6-18.2.5-25-1s-18.6.4-25 1Z" style="fill:#2b444a"/><path d="M425.4 368.2c6.7-.5 14.4.7 21 0s14.8 1.2 21 0 16.2 3 21-1c1.7-1.9 3.2-8.6 4.1-10.9s5.6-8 4.9-10.1h-63c-1.5 1.2-4 9.2-5 11-1 1.8-4.9 9.6-4 11ZM506.4 368.2c9.7-1.5 21.5 2 31 0s22.3 3.8 31 0c2.8-1.8 4.2-8.7 5.7-11.3 1.5-2.7 5.3-8.7 3.3-10.7-3.9-2.5-12.2 1.1-17 0s-11.9.5-17 0-10.8 0-16 0-15.4.2-15.1 6.9c.3 6.8-9.2 9.9-5.9 15.1Z" class="st191"/><path d="M393.4 399.2c-.6 1.1-2.4 2.2-2 4h-22c5.3-7.3 11.2-14.1 17-21 7.6-8.9 18.7-18.1 26-24 3.4.5 1.3-3.8-1-3-5.1 7.4-17.9 9.5-20 17-1.8-1.1-7.1-2.3-7 1 10.6-2.7 2.9 6.7-1.1 8.9s-7.6 11.6-10.9 9.1c-2 4.4-4.4 8.2-4 13h25c1.5-1.5-.1-4 0-5Z" style="fill:#033947"/><path d="M386.4 382.2c7.4-7.4 16.9-16.1 24-21 .5-.9 1.5-2 2-3-7.3 5.9-18.4 15.1-26 24Z" style="fill:#20737b"/><path d="M386.4 382.2c-5.8 6.9-11.7 13.7-17 21h22c-.4-1.8 1.4-2.9 2-4 6.4-11.9 10.2-26.4 17-38-7.1 4.9-16.6 13.6-24 21Z" style="fill:#31abb2"/><path d="M334.4 382.2c-8.9-1.5-14.3-8.9-17-17-.7 9.5-8.3 15-17 17 8.2 1.5 16.2 7.3 18 16 .5-8.9 8.7-13.8 16-16Z" style="fill:#e6eef0"/><path d="M425.4 368.2c2.4 3.9 15.9.2 21 1s16.4.2 22 0 16.4 2.2 20-2c-4.8 4-14.8-.2-21 1s-14.4-.7-21 0-14.3-.5-21 0Z" style="fill:#6b7e84"/><path d="M568.4 368.2c-8.7 3.8-21.5-2-31 0s-21.3-1.5-31 0c2.4 3.9 16 0 21 1s15.5.2 21 0 15.6 1.8 20-1Z" style="fill:#64787e"/><path d="M223.4 379.2c3.1.7 1.1-3.3 3-4 3.2 10.2-1.9 21.9 1 33s-3 20.5 2 27c2.2-5.9-.1-14.2 1-21s-1.8-17.9 0-24-4.8-17.2-1-21c-3.8 1.6-5.6 6.4-6 10Z" style="fill:#022d37"/><path d="M216.4 430.2c.8 2.2 3.1 3 5 4 .7-17.3-.9-34.7 0-52-2.3 15.3-.3 32.8-1 49-1.6.6-2.7-.8-4-1Z" style="fill:#558559"/><path d="M242.4 432.2c.2.3.7.8 1 1 1.2.2 1.3-1.5 2-2 0-1.3-3.4-7.1-2-11s-.7-8.9 0-13-.6-8.9 0-13-.4-8.6-1-12c1.1 16.4-2.4 33.8 0 50Z" style="fill:#56875e"/><path d="M417.4 384.2c4.1-3.4 14.7-.6 20-1s17-.7 22 0 18.7-2.8 21 1c-.2-3.6-13.2-2-19-2s-17-.6-23 0-17-2.6-21 2Z" style="fill:#39555a"/><path d="M499.4 383.2h63c-2.3-3.8-16-.2-21-1s-16.7-.3-22 0-16.1-2.2-20 1Z" style="fill:#466166"/><path d="M417.4 384.2c-2.1 6.5-5.9 12.5-8 19 8.6-.3 21.8.4 30 0s23.5.7 30 0 11.2-14 11-19c-2.3-3.8-16-.3-21-1s-16.7-.4-22 0-15.9-2.4-20 1ZM562.4 383.2h-63c-2.6 6.8-6.1 13.3-9 20 6.1.2 12.9-.3 19 0s12.1-.6 18 0 13.4-1.3 19 0 10.2-3 10.7-7.3 7.3-9.5 5.3-12.7Z" class="st175"/><path d="M154.4 389.2c-5.5-2.5-9.9 5.5-4.7 8.7 5.2 3.1 9.4-6.5 4.7-8.7Z" style="fill:#dde8f0"/><path d="M47.4 425.2c1.1 2.3 3.5 11.5 5 13 9.5.9 20.1 2.1 30 3-.8-9.3.6-18.7 0-28-4.1-3.5-15.1.4-20-2s-17 3.5-21-1c1.8 4.9 3.9 10.4 6 15Z" style="fill:#b3d68d"/><path d="M605.4 416.2c-2.1 1.1-14.1-2-15-4-4.5 13.3-10.7 27-14 41h15c3.9-12.6 9.5-24.7 14-37Z" style="fill:#227f8b"/><path d="M82.4 441.2h1c0-4.2.5-11 0-15s1.9-10.5-1-13c.6 9.3-.8 18.7 0 28Z" style="fill:#90b491"/><path d="M196.4 443.2c-11.3 4.1-23.5 8-34 14-10.9 6.2-21.2 17.4-29 27-7.4-.6-14.6-2.1-22-3-9.4-1.2-7-6.6-7-15v-51c1.3.3 3.5-.8 4 1 32 .7 62.2 15.9 92 25-1.2-2.8-4.7-3.1 0-5-4.6-2.9-14.1 3.2-12-6-5.4 1.2-12 1.1-16.3-1.7-4.3-2.8-12.9-3-15.7-6.3 3.8 1 1.2-3.1 5-2-2.6-2.9-5.9.2-7 3-9.9-.9-15.7-7.7-23.9-9.1-8.2-1.3-20 2.3-29.1-.9 2.3 19.9 2 40.5 2 61-4.5.3-5.3 5.7-4 9 2.9-3.7 10.7.3 16.8.2 6 0 11.6 6 17.2 3.8s4.9-10.5 12-10c1-5.6 8.8-13.8 14-10-.4-6.4 4.4.9 7.7-2.3 3.3-3.2-3.7-3.4-3.7-5.7 11.5-4.2 22.7-10 33-16Z" style="fill:#08312d"/><path d="M104.4 444.2h1c.8-9.3-.6-18.7 0-28h3c-.5-1.8-2.7-.7-4-1v29Z" style="fill:#719778"/><path d="M105.4 444.2c9.8 0 19.7 5.4 29.2 5.8 9.5.3 18.6 7.3 27.8 7.2 10.5-6 22.7-9.9 34-14 1.4-.5 3.3-.5 4-2-29.8-9.1-60-24.3-92-25h-3c-.6 9.3.8 18.7 0 28Z" style="fill:#b5d78d"/><path d="M359.4 418.2h24c-.8-2.5-9.3-.7-12-1s-9.8-.6-12 1Z" style="fill:#55757a"/><path d="M401.4 419.2c7.7-5.5 21.6 1 31-1s23.2 1.5 33 0c-2.5-4-16.9 0-22-1s-16.3 0-22 0-16-2-20 2Z" style="fill:#58747b"/><path d="M484.4 418.2c5.2-2.2 14.2.4 20 0s15.3-.9 21 0 16.3-2.9 21 0c-3.8-3.8-15.4-.2-21-1s-15.2-.2-21 0-15.4-2-20 1Z" style="fill:#617e83"/><path d="M355.4 427.2c6.6-2.6 17.3 3.5 23 1 .3-.7.5-1.4 1-2-3.7-3.5-15.9 3.2-20-1 2.9-9 15.6-6.2 22-4 .2-.5 2.3-2.1 2-3h-24c-1.9 1.4-2.9 6.9-4 9Z" style="fill:#d8f5f6"/><path d="M401.4 419.2c-1.5 1.5-2.5 5-3 7-.1.5 0 1 0 1 6.6.6 14.4.2 21 0s14.7 1.1 21 0 15.5 2.7 21 0c.7-1.5 4.9-7.6 4-9-9.8 1.5-23.6-2-33 0s-23.3-4.5-31 1Z" style="fill:#f0fbfb"/><path d="M480.4 427.2c8.5-4 23.1 3 32 0s23.2 4.5 31-1c.9-1.8 4.3-6.7 3-8-4.7-2.9-15.3.9-21 0s-15.2-.4-21 0-14.8-2.2-20 0c-2.8 1.8-2.9 6.3-4 9Z" style="fill:#f0fcfc"/><path d="M379.4 426.2c1.2-1.7 1.1-3.2 2-5-6.4-2.2-19.1-5-22 4 4.1 4.2 16.3-2.5 20 1Z" style="fill:#f4f9f9"/><path d="M28.4 438.2c7.9 0 16.2-.8 24 0-1.5-1.5-3.9-10.7-5-13-.4 1.6 1.4 2.5 1 4-4.8 4.4-16.6 3.6-20 9Z" style="fill:#d0eabe"/><path d="M392.4 438.2c.5-2.8 4.1-8.7 6-11 0 0-.1-.5 0-1-2.2.2-3.9 3.9-6 2-.5 3.7-1 7.5 0 10Z" style="fill:#05414e"/><path d="M480.4 427.2c-2.4 4.1-5.1 9.1-6 14 9.2.3 18.8-.4 28 0s18.9-.7 28 0c9.1.7 9.7-8.4 13-15-7.8 5.5-22.1-2-31 1s-23.5-4-32 0Z" style="fill:#39b8b7"/><path d="M344.4 448.2c6.4 1.2 13.2-5.6 20.7-4.3 7.5 1.3 9.9-7.3 12.3-12.7.5-1 .6-2.1 1-3-5.7 2.5-16.4-3.6-23-1-2 3.7-5 6.8-7.1 10.9-2.1 4.1-5 7.4-3.9 10.1Z" style="fill:#35b1b2"/><path d="M392.4 438.2c.2 1.2-.4 2.1-1 3h64c1.7-4.7 3.8-9.4 6-14-5.5 2.7-14.7-1.1-21 0s-14.4-.2-21 0-14.4.6-21 0c-1.9 2.3-5.5 8.2-6 11Z" style="fill:#39b7b7"/><path d="M344.4 448.2c2.6.2.2 2.1 1 3 6.1-.6 15.7-7.8 25-5 5.7-3 6.4-9.8 7-15-2.5 5.4-4.8 13.9-12.3 12.7-7.5-1.3-14.2 5.5-20.7 4.3Z" style="fill:#013b44"/><path d="M95.4 483.2c1.7-14.9 1.7-33.1 0-48-.5 15.5-3.6 33.8 0 48Z" style="fill:#012c35"/><path d="M28.4 441.2c2.5 6.1 6.4 13.4 10.1 18.9 3.6 5.5 6.1 13.6 10.9 18.1 6.3 4.2 21.5.5 29 1 1.3-.3 2.7.2 4 0v-38c-9.9-.9-20.5-2.1-30-3-7.8-.8-16.1 0-24 0 0 0-.7.2-1 0 .4.9.6 2 1 3Z" style="fill:#619a40"/><path d="M78.4 479.2c1.1 0 3.5 2 5 0 2.4-5-.9-13.4 0-19s0-13.2 0-19h-1v38c-1.3.2-2.7-.3-4 0Z" style="fill:#508158"/><path d="M111.4 481.2c-1.5-.3-3.9-1.8-6-1-.5-6.3.6-13.9 0-20s1.4-12.8 0-16h-1v22c0 8.4-2.4 13.8 7 15Z" style="fill:#4c824f"/><path d="M111.4 481.2c7.4.9 14.6 2.4 22 3 7.8-9.6 18.1-20.8 29-27-9.2.1-18.2-6.9-27.8-7.2-9.5-.4-19.5-5.7-29.2-5.8 1.4 3.2-.6 9.9 0 16s-.5 13.7 0 20c2.1-.8 4.5.7 6 1Z" style="fill:#62993f"/><path d="M284.4 460.2c-5.2-3-13.9-.3-21-1s-15.2 0-22 1c13.7 1.5 29.6 2.1 43 0Z" style="fill:#002b33"/><path d="M349.4 463.2c22.2-2.6 46.6-3.3 69-1-20.9-4.6-48.3-5-69 1Z" style="fill:#014351"/><path d="M349.4 463.2c-8.6 2.4-18.3 2.5-26 7 11.3 5.5 24.1-.7 37 0s27.9-.4 40 2 24.7 2.5 36 6c11.2 3.5 21.9 5.2 32.3 9.7 10.4 4.5 20.2 6.9 30 12s18.3 7.5 27 15 17.8.7 21.7-9.7c-39.4-23.3-83.1-38.3-129-43-22.4-2.3-46.8-1.6-69 1Z" style="fill:#2db2b7"/><path d="M203.4 472.2c8.6-.3 16.3-5.8 25.2-5.8 8.9 0 20.6-3 29.8-1.2s21.8-2.2 30 2c-5-6.2-22.9-3.4-31-3s-23.1-3.6-29.8-.8c-6.7 2.8-19.8 3-24.2 8.8Z" style="fill:#11392b"/><path d="M203.4 472.2h-1c-7.1 6.1-19.3 7.6-26.2 14.8-7 7.1-16.4 12.6-19.8 22.2 4.6-3.6 8.8-7.5 14-10 1.1-.5 1.8-.8 3-1 14.5-6.9 26.1-11.4 42-10 12.4 1.1 26.2-4.7 39-1-1 7.7-13.5 11.6-13 19 5.6-1.8 10.9-7.8 17-10 6.8-10.7 22.9-16.1 30-27 .3-1.5.9-.9 0-2-8.2-4.2-20.9-.2-30-2s-20.9 1.2-29.8 1.2c-8.9 0-16.6 5.5-25.2 5.8Z" style="fill:#b2d58f"/><path d="M258.4 496.2c.4-.2 1 0 1 0 8.6-6.6 27.1-16.4 29-27-7.1 10.9-23.2 16.3-30 27Z" style="fill:#123423"/><path d="M170.4 499.2c-5.2 2.5-9.4 6.4-14 10 3.3-9.6 12.8-15.1 19.8-22.2s19.1-8.7 26.2-14.8c-22.8 3.8-40 21.1-50 41 6.4-3 12.9-9.7 18-14Z" style="fill:#153e31"/><path d="M83.4 479.2c-1.5 2-3.9 0-5 0-7.5-.5-22.7 3.2-29-1 3.3 3.1 13.4 2.6 18 2s14.1 3 16-1Z" style="fill:#164326"/><path d="M298.4 510.2c-4.2-3.3-9.9-4.4-15-6 7.4-5.1 10.6-21 20.2-17.2 9.6 3.8 20.2 8.1 29.8 12.2-10-9.3-25.9-9.7-35-20-1.1 3.9-4.1 5.2-4 9-2.6.9-4.9-2-7 0 .7 2.9 2.3 3.2 3 6-2-1.2-3.9.7-5-2-.4 4.3-.7 7.5-4 11 4.2 2.6 9 5.8 5 11 3.6 0 7.2-1.4 7-5 1.5 1.2 3.2.8 5 1Z" style="fill:#0b3230"/><path d="M449.4 529.2c5.4 2 10.5 6.3 15.7 8.3 5.2 2 10.5 6.9 15.4 8.6 4.9 1.7 11.1 8.2 15.9 8.1.6-.5 1.4-.6 2-1 6.1-4.2 12.3-8.9 17-15-45.4-30.8-97-54.1-153-55 29.5 12.8 57 34.6 87 46Z" style="fill:#2cb0b4"/><path d="M298.4 510.2h1c17.4 2.8 33.2 15.5 49.7 21.3 16.5 5.8 29.8 18.3 45.6 25.4 15.8 7.1 28 21.1 42.8 29.2 1.5.5 2.4.7 4 1 5.6-.8 10.9-9.4 17-10-11.8-13.8-29.3-23-44-34-.3-.2-.8-.7-1-1-14.8-9.4-30.4-18-46-26-.7-.3-1.3-.7-2-1-9.9-5.1-22.5-9.2-31-16 0 0-.5.1-1 0-9.6-4.1-20.2-8.5-29.8-12.2-9.6-3.8-12.8 12.2-20.2 17.2 5.1 1.6 10.8 2.7 15 6Z" style="fill:#b2d48c"/><path d="M173.4 498.2c5-.2 9.7-5.8 14-1-2.5-8.7 12.4-3.4 17-8-2.9 4.1 2.2 6.1 2 10-12.1 2-20.8 11.1-31.1 16.9-10.3 5.8-18.6 14.1-22.9 24.1-1.2 2.8-7.6 7.7-1.8 9.8 5.8 2.1 9.1-1.1 13.8-1.8 4.6-.7 9.4-1.8 14-3 5-1.3 10.3-3.2 15-5 4-2.2 8.4-6.2 12-9-16.9 9.3-36.3 18.2-56 16 4.7-8.6 11.6-15.2 18.8-22.2 7.2-7.1 16.3-12.1 24.5-17.5 8.2-5.5 24.2-6.5 22.8-19.2-15.9-1.4-27.5 3.1-42 10m39.9-5.1c-3.3 1-5.2-1.4-8-2 .5-4.7 10.3-3.9 8 2Z" style="fill:#0c382a"/><path d="M215.4 488.2c1.4 12.7-14.6 13.8-22.8 19.2-8.2 5.5-17.3 10.5-24.5 17.5-7.2 7.1-14.1 13.6-18.8 22.2 19.7 2.2 39.1-6.7 56-16 8.2-4.5 14.9-11.8 23-16 3.8-3.1 7.4-11.8 13-9-.5-7.4 12-11.3 13-19-12.8-3.7-26.6 2.1-39 1Z" style="fill:#629841"/><path d="M213.4 493.2c2.3-5.9-7.5-6.7-8-2 2.8.6 4.7 3 8 2Z" style="fill:#032c40"/><path d="M60.4 492.2c5.8-3.3 16.7 2.5 23 0v26c-9.1-4.3-13.3-15-21-21 4.6 8.9 14.8 15.2 18 25 7.7-7.5 3.3-22.2 3-32-8-.3-14.9-.3-23-1-.2.9.3 2.1 0 3Z" style="fill:#0d3327"/><path d="M105.4 493.2c1.6-.7 2.1.8 3 1 4.9 1.1 10.1 0 15 1-3.8 10.2-11.7 19.4-15 30 5.5-1.9 3.1-9.9 9-11-2.5-6.2 9.3-13.2 6.8-18.8-2.6-5.6-16.1-6-18.8-2.2Z" style="fill:#13382a"/><path d="M62.4 497.2c7.7 6 11.9 16.7 21 21v-26c-6.3 2.5-17.2-3.3-23 0-.3 1 1.1 3.4 2 5Z" style="fill:#abd091"/><path d="M104.4 495.2c-.6 4.8-.3 11.2 0 16s-1.6 12.4 1 16v-33h3c-.9-.2-1.4-1.7-3-1-.8 1.1-.8.4-1 2Z" style="fill:#719979"/><path d="M105.4 527.2v1c2.5.6 2.4-1.8 3-3 3.3-10.6 11.2-19.8 15-30-4.9-1.1-10.1 0-15-1h-3v33Z" style="fill:#adcf8e"/><path d="M105.4 528.2v-1c-2.6-3.6-.7-11.2-1-16s-.6-11.2 0-16c-1.9 4.6-.4 14-1 19-.7 5-4.7 11.5 2 14Z" style="fill:#022e28"/><path d="M241.4 506.2c-4.9 1.5-8.5 6.6-13 9-8.1 4.2-14.8 11.5-23 16-3.6 2.8-8 6.8-12 9 8.2-4 15.4-10.1 24-13-2.5 4.8 3.8 4.1 7 4-5-3.3-6.4-10.6 2-9 1.2-4.9 6.1-6 8-10 7.6 2.8 10-5.6 19-3 1-3.3-2.4-3.8-4-5 4.1-1 6.6-5.3 10-8 0 0-.6-.2-1 0-6.1 2.2-11.4 8.2-17 10Z" style="fill:#063030"/><path d="M365.4 515.2c-3.6-4.3-9-8-14.9-9.1-6-1-9.9-6.8-16.1-6.9 8.5 6.8 21.1 10.9 31 16Z" style="fill:#153a2c"/><path d="M228.4 515.2c4.5-2.4 8.1-7.5 13-9-5.6-2.8-9.2 5.9-13 9Z" style="fill:#103d21"/><path d="M437.4 586.2c-14.8-8.2-27-22.1-42.8-29.2-15.8-7.1-29-19.6-45.6-25.4-16.5-5.8-32.3-18.5-49.7-21.3 2.3 2.8-2.5 2.7-3 5 5.3-2.7 8.3-.2 14 1-1.3 2.1 1.1 4.8-2 6 2.8-.5 9.6-1.8 4 1 3.3 0 12.4.7 6-3 3-.3 7.1 1.7 5 5 5.8-.8 7.8 8.3 13 6 .5-3.2-4.9-1.4-4-5 9.9 6.3 30.9 7.8 32 21 8.7-4.2 21.5 5.5 30.7 11.3 9.2 5.8 21.1 12.3 27.3 20.7 6-.2 9.6 5.1 15 7Z" style="fill:#0b302c"/><path d="M367.4 516.2c15.6 8 31.2 16.6 46 26-2.3-4.6-11.2-4.6-10-11-4.8 1.2-8.6-1.5-8-6-9.2 2-19-7.9-28-9Z" style="fill:#0f342e"/><path d="M238.4 569.2c4.7 2.4 5.9 2 11 2-7.2-2.7-14.6-4.7-22-7-2.3-.7-4.8-.8-7-2 1.2-1.5 3.3-2 5-3 5.2-3.5 10.2-7.9 15-12 5.5-5.5 12.2-16.1 19-19 8.9-3.8 20.3 5.9 29.2 7.8 8.9 1.9 19.5 8.6 28 12 8.5 3.4 5.8 2.2 13.9 6.1 8.1 3.9 18.4 9.7 26 14 7.6 4.3 7.3 4 12.6 7.4 5.3 3.4 8.2 5 12 7.9 3.9 3 9.6 5.2 12 8 2.4 2.9 11.3 6.2 11.3 8.7-2.5-8.7-23.2-11.9-16-21-2.9-.6-5.3 1-8 1-18.5-14.6-39.5-22.8-61-33-21.5-10.3-43.8-21.7-67-24-1.5 3.8 3.1 3.9 3 7-5.1 4.8-9-.3-14 2 8.6 1.8 2.1 11.9-4 9 2 4.5-3.7 7.1-8 7 5.8 6.2-11 6-10 13s13.7 5.3 19 8Z" style="fill:#0a342e"/><path d="M259.4 528.2c-1.8 1-3.6 4.6-5 6 7 4.4 15.1 6.8 22.7 10.3 7.5 3.5 16.1 6.5 23.4 10.6 7.2 4.1 14.2 8 21.6 11.4 7.5 3.4 14.2 9.4 21.5 12.5 7.3 3.1 12.9 10.2 20 13 7.1 2.7 13 12.8 19.8 14.2 6.4-1.4 12.6-3.4 19-5 .9-.2 1.7 0 2-1 0-2.5-8.9-5.8-11.3-8.7-2.4-2.9-8.1-5-12-8-3.9-3-6.7-4.5-12-7.9-5.3-3.4-5-3.1-12.6-7.4-7.6-4.3-17.9-10.1-26-14-8.1-3.9-5.4-2.8-13.9-6.1-8.5-3.4-19.1-10.1-28-12-8.9-1.9-20.3-11.6-29.2-7.8Z" style="fill:#b2d68f"/><path d="M240.4 547.2c4.7-4 9.6-8.7 14-13 1.4-1.4 3.2-5 5-6-6.8 2.9-13.5 13.5-19 19Z" style="fill:#225332"/><path d="M475.4 547.2c8.5 4.5 12.2 14.1 21 7-4.9 0-11-6.4-15.9-8.1-4.9-1.7-10.2-6.6-15.4-8.6-5.2-2-10.3-6.2-15.7-8.3 8.7 5.7 16.7 13 26 18Z" style="fill:#1e767e"/><path d="M240.4 547.2c-4.8 4.1-9.8 8.5-15 12-.7 1-1.5 1.9-2 3 1.6-.3 3.6.2 4 2 7.4 2.3 14.8 4.3 22 7 .7.3 1.2.7 2 1 6.3 2.3 12.7 4.6 19 7 .4.1.8.7 1 1 19.3 5.2 34.5 13.5 51.8 25.2s39.9 5.2 60.2.8c-6.8-1.4-12.7-11.5-19.8-14.2-7.1-2.7-12.7-9.9-20-13-7.3-3.1-14.1-9.1-21.5-12.5-7.4-3.4-14.4-7.3-21.6-11.4-7.2-4-15.9-7.1-23.4-10.6-7.5-3.5-15.7-5.9-22.7-10.3-4.4 4.3-9.3 9-14 13Z" style="fill:#60983f"/><path d="M178.4 545.2c-4.5 1.2-9.4 2.3-14 3-4.6.7-8 3.8-13.8 1.8-5.8-2.1.6-7 1.8-9.8-1.5.2-2.2 2.5-4 2 .7-8.8-8.6-7.6-6 1 4.7 0 4 3.7 2 6 12.3 8.5 23.1.4 34-4Z" class="st165"/><path d="M414.4 543.2c14.7 11 32.2 20.2 44 34-6.1.6-11.4 9.2-17 10 6.5 2.3 11.9-7.9 19-8-3.5-6-3-16.5-11-16-7.9.5-11.3-9.6-17.8-11.2-6.5-1.6-11.8-10.7-17.2-8.8Z" style="fill:#0d342e"/><path d="M498.4 553.2c-.6.4-1.4.5-2 1-8.8 7.1-12.5-2.5-21-7 4.7 3.2 6.5 5.8 11.3 9.7 4.8 3.9 7.8-.3 11.7-3.7Z" style="fill:#14545e"/><path d="M227.4 564.2c-.4-1.8-2.4-2.3-4-2 .5-1.1 1.3-2 2-3-1.7 1-3.8 1.5-5 3 2.2 1.2 4.7 1.3 7 2Z" style="fill:#50805a"/><path d="M273.4 583.2c-1.4-.8-1.4-1.6-2-3-.2-.3-.6-.9-1-1-5.1.7-14.7-3.5-19-7-.8-.3-1.3-.7-2-1-5.1 0-6.3.4-11-2-.8 5.3-13.9-.4-18 2 5.8 2.2 14.2 3.2 20 2s18.6.6 12 6c5.5-3 18.3-.9 15 7 2.2 1.3 6-3.2 6-3Z" class="st165"/><path d="M270.4 579.2c-6.3-2.4-12.7-4.7-19-7 4.3 3.5 13.9 7.7 19 7Z" style="fill:#113c2a"/><path d="M256.4 595.2c12.3 4.4 24.6 12.8 36 19-38-1.5-73.4-13.5-108-27 13.7-14.2 32.1-5.8 48-1-5.6-5.3-16.8-4.1-20-12-2.1 0-8 2.1-4-1-7.9-1.4-12.3 7.7-20 4 .7 5.9-6.8 3.5-6 10 .8 6.5 5.1 4.6 10 4 .6 3.3-6.4 1.1-3 5 8.1-4.5 15.5 2.4 23.3 4.7 7.8 2.3 17.2 3.5 24.6 6.4 7.4 2.9 20.1 1 22.1 8.9 3.2-.4 5.7 1.7 9 1 5.4-10.3 24.8 8.6 28-6-6.3-.9-8.1-7.7-14-10-7 5.3-17.2-4.1-26-6Z" style="fill:#07332e"/><path d="M256.4 595.2c-1.5-.3-2.6-.5-4-1-6.2-2.1-13.2-4-19-7-.3-.2-.8-.7-1-1-15.9-4.8-34.3-13.2-48 1 34.6 13.5 70 25.5 108 27-11.4-6.2-23.7-14.6-36-19Z" style="fill:#61964a"/><path d="M273.4 583.2c5.5 3 12.2 4 18 7 13.9 7.1 25.5 12.4 39 21s33 .6 48-2c8.4-1.4 17-3.7 24-8-6.4 1.6-12.6 3.6-19 5-20.3 4.4-43 11-60.2-.8s-32.4-20-51.8-25.2c.6 1.4.6 2.2 2 3Z" style="fill:#0e3924"/><path d="M233.4 587.2c5.8 3 12.8 4.9 19 7-5-2.5-13.5-8.9-19-7Z" style="fill:#0e3c26"/><path d="M378.4 609.2c-15 2.5-34.5 10.5-48 2-13.5-8.6-25.2-13.9-39-21 3.1 4.4 11.5 3.4 9 11 2.5-1.4 5-2.5 8-2-5.2 7 3.2 5.5 8 4 2.9 4.5 12.2 8.1 16.9 11.1 4.7 3 13.2 8.5 15.1 1.9 10.8.3 20.4-4.3 30-7Z" style="fill:#022a32"/></g></svg>